<?xml version="1.0" encoding="UTF-8"?><!DOCTYPE svg PUBLIC "-//W3C//DTD SVG 1.1//EN" "http://www.w3.org/Graphics/SVG/1.1/DTD/svg11.dtd"><svg xmlns="http://www.w3.org/2000/svg" xmlns:xlink="http://www.w3.org/1999/xlink"><defs/><symbol id="banki" viewBox="0 0 126 21">
<path fill-rule="evenodd" clip-rule="evenodd" d="M17.0978 0.631226H9.40096V4.86071H17.0978V0.631226ZM109.46 6.27054H105.987C104.654 6.27054 103.503 6.33186 102.9 6.47426C101.958 6.69842 101.208 7.18974 100.655 7.95105C100.003 8.82233 99.664 9.83811 99.664 10.8849V20.3688H103.862V11.2049C103.876 9.64778 105.122 9.09019 105.822 9.09019H109.46V6.27054ZM91.2675 20.3688V6.27054H87.0692V20.3688H91.2675ZM48.6493 6.62581C48.0042 6.38967 47.2093 6.27054 45.8742 6.27054H38.7889V9.10077L44.2572 9.08596L46.1254 9.09442C47.3541 9.10711 48.1875 10.3471 48.1231 11.1105L48.1343 11.919L41.3128 11.9239C40.1989 11.9239 39.5586 12.0868 38.8218 12.9052C38.085 13.7046 37.6274 14.7633 37.6274 16.0068C37.6274 17.184 38.0361 18.5805 38.8365 19.3502C39.6356 20.1228 40.6236 20.3688 41.7697 20.3688H52.0975V12.3857C52.0975 10.7639 51.9769 10.3854 51.8158 9.8793C51.7863 9.78685 51.7555 9.69014 51.7239 9.58081C51.4076 8.8181 51.0073 8.25346 50.3944 7.64089C49.9256 7.1827 49.3084 6.84575 48.6493 6.62581ZM25.4944 6.27759V0.631226H21.3451V20.3688H30.3056C32.0227 20.3688 33.4123 19.764 34.5067 18.252C35.5115 16.852 36.0223 15.1976 36.0223 13.2795C36.0223 11.4397 35.5115 9.83458 34.492 8.49807C33.3956 7.06357 32.0045 6.34455 30.3532 6.27759H25.4944ZM74.4743 13.3514V0.631226H70.276V20.3688H74.4743V13.3584L79.9426 20.3688H84.97L79.0498 13.3556L84.956 6.34455H79.9713L74.4743 13.3514ZM65.0842 6.47426C64.5083 6.33116 63.5721 6.27054 62.2951 6.27054H54.1826V20.3519L58.3809 20.3688V9.08314L61.6605 9.07751C61.6605 9.07751 63.9863 9.01336 63.994 11.3375L63.9786 20.3688H68.1769L68.1685 10.8349C68.1685 9.78806 67.8564 8.82162 67.2351 7.95035C66.7054 7.18975 65.9889 6.69842 65.0842 6.47426ZM115.791 15.3019L115.806 6.27054H111.608L111.617 15.8045C111.617 16.8513 111.929 17.8177 112.551 18.689C113.08 19.4496 113.796 19.9409 114.701 20.1651C115.277 20.3082 116.214 20.3688 117.491 20.3688H125.602V6.28746L121.404 6.27054V17.5562L118.125 17.5618C118.125 17.5618 115.799 17.626 115.791 15.3019ZM25.4734 9.09019H28.9125H28.9132C29.8655 9.09019 30.6373 9.51385 31.253 10.3851C31.8751 11.2493 32.1767 12.2496 32.1767 13.3761C32.1767 14.4708 31.8884 15.4556 31.316 16.2895C30.7562 17.1213 30.0152 17.5492 29.0937 17.5492H25.4734V9.09019ZM42.743 14.7387L48.1042 14.7295L48.1231 17.5485H42.6968C42.6612 17.5485 42.6266 17.5486 42.593 17.5488C42.2257 17.5509 41.9764 17.5523 41.6648 17.2933C41.3408 17.0148 41.126 16.6638 41.126 16.2267C41.126 15.7389 41.3485 15.34 41.6872 15.0446C42.0468 14.7464 42.743 14.7387 42.743 14.7387ZM91.2675 1.33614H87.0692V4.86071H91.2675V1.33614ZM93.3666 16.8442H97.5649V20.3688H93.3666V16.8442ZM5.20269 8.38528H17.0978V12.6148H5.20269V8.38528ZM17.0978 16.1393H0.304688V20.3688H17.0978V16.1393Z"/>
</symbol><symbol id="entrance" viewBox="0 0 16 16">
<path d="M8.66667 15.3334H14C14.1768 15.3334 14.3464 15.2631 14.4714 15.1381C14.5964 15.0131 14.6667 14.8435 14.6667 14.6667V1.33335C14.6667 1.15654 14.5964 0.986973 14.4714 0.861949C14.3464 0.736925 14.1768 0.666687 14 0.666687H8.66667C8.48986 0.666687 8.32029 0.736925 8.19526 0.861949C8.07024 0.986973 8 1.15654 8 1.33335C8 1.51016 8.07024 1.67973 8.19526 1.80476C8.32029 1.92978 8.48986 2.00002 8.66667 2.00002H13.3333V14H8.66667C8.48986 14 8.32029 14.0703 8.19526 14.1953C8.07024 14.3203 8 14.4899 8 14.6667C8 14.8435 8.07024 15.0131 8.19526 15.1381C8.32029 15.2631 8.48986 15.3334 8.66667 15.3334Z"/>
<path d="M1.33325 7.99999C1.33325 8.1768 1.40349 8.34637 1.52851 8.47139C1.65354 8.59642 1.82311 8.66665 1.99992 8.66665H9.72392L8.19525 10.1953C8.13158 10.2568 8.08079 10.3304 8.04585 10.4117C8.01091 10.4931 7.99252 10.5805 7.99175 10.6691C7.99098 10.7576 8.00785 10.8454 8.04137 10.9273C8.07489 11.0092 8.12439 11.0837 8.18699 11.1462C8.24958 11.2088 8.32402 11.2583 8.40595 11.2919C8.48788 11.3254 8.57567 11.3423 8.66419 11.3415C8.75271 11.3407 8.84019 11.3223 8.92152 11.2874C9.00286 11.2524 9.07642 11.2017 9.13792 11.138L11.8046 8.47132C11.8668 8.40923 11.916 8.33534 11.9493 8.25399C12.0167 8.0909 12.0167 7.90774 11.9493 7.74466C11.916 7.6633 11.8668 7.58941 11.8046 7.52732L9.13792 4.86066C9.07642 4.79699 9.00286 4.7462 8.92152 4.71126C8.84019 4.67632 8.75271 4.65793 8.66419 4.65716C8.57567 4.65639 8.48788 4.67326 8.40595 4.70678C8.32402 4.7403 8.24958 4.7898 8.18699 4.8524C8.12439 4.91499 8.07489 4.98943 8.04137 5.07136C8.00785 5.15329 7.99098 5.24107 7.99175 5.32959C7.99252 5.41811 8.01091 5.50559 8.04585 5.58693C8.08079 5.66826 8.13158 5.74183 8.19525 5.80333L9.72392 7.33332H1.99992C1.82311 7.33332 1.65354 7.40356 1.52851 7.52858C1.40349 7.65361 1.33325 7.82318 1.33325 7.99999Z"/>
</symbol><symbol id="forbes" viewBox="0 0 86 23">
<path fill-rule="evenodd" clip-rule="evenodd" d="M48.9003 0.87236L48.9001 0.821533C48.8817 0.823005 48.8652 0.823982 48.85 0.824885C48.8198 0.826675 48.7946 0.828171 48.7698 0.832631L48.5035 0.879116C48.0976 0.949954 47.6917 1.0208 47.2862 1.09408C46.9855 1.1485 46.685 1.20421 46.3845 1.25992L46.3841 1.25997L46.384 1.26001L46.3838 1.26004L46.3836 1.26008L46.3834 1.26011C46.0985 1.31293 45.8135 1.36576 45.5284 1.41748C45.1822 1.48022 44.8358 1.54192 44.4894 1.60362L44.489 1.6037C44.1686 1.66076 43.8483 1.71782 43.528 1.77571C43.1653 1.84127 42.8028 1.90837 42.4416 1.9809C42.4055 1.98813 42.3536 2.03691 42.351 2.06994C42.3407 2.20234 42.3394 2.33681 42.3513 2.46896C42.3546 2.50767 42.408 2.56626 42.4465 2.57349C42.5397 2.59112 42.6339 2.60337 42.7281 2.61562C42.8298 2.62884 42.9314 2.64206 43.0316 2.66201C43.4901 2.75312 43.8671 2.96941 44.0833 3.40404C44.3188 3.87713 44.4156 4.38609 44.4365 4.90899C44.4641 5.59579 44.4873 6.28284 44.4984 6.97015C44.5131 7.89877 44.5227 8.82766 44.5201 9.75629C44.5126 12.4353 44.5002 15.1141 44.4847 17.7929C44.4822 18.2538 44.4711 18.7145 44.46 19.1753V19.1755V19.1756V19.1758V19.1759L44.46 19.1783C44.4545 19.4081 44.449 19.6379 44.4445 19.8677C44.4406 20.0666 44.4371 20.2656 44.4336 20.4645L44.4336 20.4651L44.4335 20.4657L44.4335 20.4663L44.4335 20.4669C44.4278 20.7915 44.4221 21.1162 44.4146 21.4408C44.4125 21.5304 44.4298 21.5778 44.533 21.5962C44.8482 21.6519 45.1631 21.7104 45.4779 21.7689C45.968 21.8599 46.458 21.951 46.9498 22.0316C47.3966 22.105 47.8491 22.1467 48.3005 22.1883L48.3562 22.1934C48.5325 22.2097 48.7095 22.2163 48.8866 22.2229C49.0231 22.228 49.1596 22.2331 49.2958 22.2427C49.9674 22.2897 50.639 22.2626 51.3024 22.1751C51.8401 22.1041 52.3726 21.974 52.8984 21.8359C53.578 21.6573 54.2099 21.3577 54.8041 20.9832C55.4855 20.554 56.0768 20.0236 56.574 19.3876C57.1236 18.6843 57.5219 17.9015 57.7967 17.0563C58.0054 16.4141 58.1272 15.7534 58.2031 15.0808C58.331 13.9457 58.274 12.8248 57.9969 11.7178C57.8519 11.1386 57.6406 10.5817 57.3566 10.0549C57.0457 9.47858 56.6653 8.9531 56.195 8.49446C55.8279 8.13648 55.423 7.8309 54.9744 7.58157C54.4021 7.2636 53.7929 7.05738 53.1451 6.96963C52.3718 6.86458 51.6032 6.90975 50.8385 7.05867C50.2071 7.18153 49.6083 7.39497 49.0404 7.69565L49.027 7.70272C48.9198 7.75944 48.8659 7.788 48.8392 7.77174C48.8121 7.75526 48.8131 7.69266 48.815 7.56657L48.8152 7.55938L48.8149 7.55293L48.8147 7.54647C48.8163 7.15636 48.8174 6.76623 48.8185 6.37608V6.37603V6.37597V6.37592V6.37586C48.8212 5.42439 48.8239 4.47287 48.8345 3.52147C48.8411 2.93722 48.8588 2.35309 48.8766 1.769V1.76882V1.76863V1.76845V1.76827C48.8847 1.50189 48.8928 1.23553 48.8998 0.969164C48.9007 0.937923 48.9005 0.906684 48.9003 0.87236ZM53.6882 14.2701L53.6523 14.2727C53.6706 15.1009 53.5953 15.924 53.4358 16.7339C53.3236 17.3038 53.167 17.8685 52.9815 18.4193C52.7483 19.1125 52.4064 19.7575 51.9092 20.3036C51.3981 20.8652 50.7864 21.2276 49.9948 21.191C49.6903 21.1768 49.3864 21.1584 49.0822 21.1399C48.9566 21.1321 48.9029 21.0746 48.9001 20.9357C48.8917 20.5251 48.879 20.1146 48.8663 19.704C48.855 19.3413 48.8438 18.9786 48.8355 18.6159C48.8175 17.8251 48.8046 17.0343 48.7984 16.2435C48.787 14.7602 48.7767 13.2767 48.7765 11.7934C48.7765 11.2519 48.7833 10.7104 48.7901 10.1689V10.1688V10.1686V10.1685V10.1683C48.7952 9.76019 48.8003 9.35202 48.8025 8.9438C48.8033 8.82043 48.8257 8.76004 48.9586 8.71849C49.374 8.58815 49.7907 8.47639 50.2293 8.46736C51.0291 8.4511 51.6876 8.7603 52.2255 9.33946C52.6832 9.83217 52.9732 10.4214 53.1897 11.0512C53.3633 11.5557 53.4908 12.0727 53.5473 12.6028C53.5885 12.9896 53.6184 13.3777 53.6484 13.7657L53.6484 13.7659L53.6484 13.7661L53.6484 13.7664L53.6484 13.7666L53.6485 13.7668C53.6614 13.9346 53.6743 14.1024 53.6882 14.2701ZM13.6855 8.3564V8.09804H13.6854C13.4734 8.09804 13.277 8.09804 13.0812 8.09882C12.8135 8.09882 12.8133 8.09957 12.7638 8.35792L12.7615 8.36956C12.6441 8.97995 12.455 9.56402 12.0874 10.0748C11.8232 10.4418 11.4867 10.711 11.046 10.8511C10.7932 10.9315 10.5371 10.9407 10.2798 10.95C10.2336 10.9517 10.1874 10.9533 10.1412 10.9554C9.95361 10.964 9.766 10.9723 9.57838 10.9807C9.09198 11.0023 8.60551 11.024 8.11919 11.0491C8.00231 11.0553 7.97677 11.0174 7.97831 10.9046C7.98669 10.3371 7.99273 9.76969 7.99878 9.20228C8.00427 8.68627 8.00977 8.17029 8.01702 7.65438C8.02424 7.1258 8.04024 6.59722 8.05727 6.06889C8.07135 5.62953 8.08623 5.19017 8.10111 4.7508L8.10111 4.75079C8.12304 4.10332 8.14497 3.45584 8.16434 2.80837C8.16769 2.69507 8.1922 2.65481 8.31502 2.65532C9.42446 2.66023 10.5339 2.65919 11.6433 2.65739C12.0967 2.65661 12.5407 2.7121 12.9793 2.82954C13.6003 2.99575 14.1463 3.29333 14.6236 3.72255C15.2565 4.29139 15.7023 4.99418 16.0512 5.75866C16.2107 6.1083 16.3476 6.46821 16.4845 6.82799C16.5306 6.94891 16.5766 7.06982 16.6234 7.19032C16.6482 7.25433 16.6647 7.28375 16.74 7.25949C17.005 7.17406 17.2715 7.09276 17.5391 7.01481C17.61 6.99417 17.6322 6.95726 17.6289 6.88628C17.6191 6.68471 17.6129 6.48262 17.6085 6.28079L17.6007 5.92389C17.5881 5.35548 17.5756 4.78691 17.5664 4.21835C17.551 3.25952 17.5368 2.3007 17.529 1.34187C17.528 1.21902 17.4901 1.19321 17.375 1.19321C12.9327 1.19524 8.49039 1.19551 4.04808 1.19579L0.411428 1.19605C0.372164 1.19605 0.333013 1.19958 0.289964 1.20347H0.289958H0.289954C0.268226 1.20543 0.245506 1.20748 0.221276 1.20921C0.221276 1.2797 0.221958 1.34929 0.222633 1.41825C0.224234 1.58158 0.225799 1.74131 0.21818 1.90065C0.211729 2.03254 0.252237 2.07796 0.385885 2.08803C0.702462 2.11203 1.01956 2.1412 1.33252 2.19204C1.95871 2.29425 2.43654 2.61222 2.72964 3.18958C2.95849 3.64125 3.07743 4.12698 3.12646 4.62175C3.20592 5.42495 3.25623 6.23175 3.29442 7.0383C3.33183 7.82394 3.3517 8.61114 3.35608 9.39755C3.36279 10.567 3.35712 11.7369 3.34138 12.9064C3.32841 13.8784 3.30048 14.8501 3.27254 15.8219L3.27254 15.8219L3.2663 16.0394C3.26351 16.1369 3.26093 16.2343 3.25835 16.3318C3.23777 17.11 3.21719 17.8883 3.09085 18.6601C3.01525 19.1208 2.91179 19.5709 2.68758 19.9831C2.46337 20.3953 2.14009 20.698 1.67258 20.8113C1.5115 20.8505 1.34798 20.8796 1.18449 20.9087L1.18446 20.9087C1.09892 20.9239 1.01339 20.9392 0.92822 20.9558C0.765951 20.9877 0.603807 21.0207 0.439979 21.054L0.221534 21.0983C0.221534 21.1549 0.221358 21.2106 0.221185 21.2657V21.2658V21.2658V21.2658V21.2658C0.22063 21.4423 0.220095 21.6124 0.225404 21.7823C0.226436 21.8104 0.275974 21.8468 0.310547 21.861C0.333854 21.8706 0.362172 21.8686 0.390423 21.8666C0.402203 21.8657 0.413972 21.8649 0.425361 21.8649H11.1067C11.1196 21.8649 11.1325 21.8645 11.1454 21.8642H11.1455C11.1713 21.8636 11.1972 21.863 11.2228 21.8649C11.2966 21.8703 11.3219 21.8347 11.3211 21.765C11.3204 21.698 11.3205 21.631 11.3206 21.564C11.3208 21.4374 11.3211 21.3109 11.3157 21.1845C11.3144 21.1497 11.2677 21.0929 11.2344 21.0867C11.1502 21.071 11.0662 21.0545 10.982 21.0379C10.7125 20.9849 10.4427 20.9318 10.1704 20.9078C9.41904 20.8415 8.87696 20.4995 8.57277 19.7975C8.32534 19.2266 8.22342 18.6206 8.17466 18.0097C8.10835 17.183 8.07197 16.3537 8.04256 15.525C8.01839 14.8447 8.0062 14.1641 7.99402 13.4836L7.99401 13.4835L7.99401 13.4835L7.99401 13.4834C7.9898 13.2485 7.9856 13.0135 7.9809 12.7786C7.97809 12.6312 7.97886 12.4837 7.97964 12.3334V12.3334V12.3334V12.3334V12.3334C7.98001 12.2624 7.98038 12.1908 7.98038 12.1184L8.0284 12.1182C8.05652 12.118 8.07888 12.1178 8.10113 12.1187C8.29471 12.1258 8.48829 12.1325 8.68185 12.1392C9.16242 12.1557 9.64291 12.1722 10.1231 12.1969L10.1243 12.1969C10.4144 12.2119 10.711 12.2271 10.9901 12.2993C11.5902 12.4544 11.9942 12.8643 12.2842 13.398C12.5474 13.8827 12.6932 14.4067 12.7992 14.943C12.8191 15.0442 12.8632 15.0653 12.954 15.063C13.0991 15.0592 13.2444 15.0606 13.3897 15.062H13.3897H13.3897H13.3898H13.3898L13.5087 15.063L13.511 15.063C13.6852 15.064 13.6855 15.064 13.6855 14.886V8.3564ZM15.4621 14.5114C15.464 13.8006 15.5499 13.1014 15.7122 12.4141C15.8799 11.7033 16.1314 11.0227 16.4908 10.3811C16.8265 9.78202 17.2303 9.23872 17.72 8.7597C18.2344 8.25641 18.816 7.84759 19.4621 7.526C20.0302 7.24339 20.6249 7.04027 21.2421 6.90864C21.5432 6.84429 21.851 6.80902 22.1582 6.77383L22.1584 6.77381C22.2183 6.76694 22.2782 6.76008 22.3381 6.75301C23.1033 6.66216 23.8663 6.71119 24.6243 6.82785C25.7603 7.00284 26.8143 7.39102 27.7403 8.08633C28.4547 8.62265 29.0288 9.28389 29.4645 10.0657C29.7922 10.6536 30.0316 11.2741 30.2019 11.9255C30.3988 12.6781 30.5028 13.4426 30.5035 14.2174C30.504 14.7483 30.4775 15.2823 30.4156 15.8093C30.3294 16.5444 30.123 17.2523 29.8265 17.9335C29.5373 18.5986 29.1647 19.2115 28.6977 19.7646C28.3631 20.1608 27.9818 20.5108 27.5648 20.819C27.0803 21.1769 26.5563 21.4663 25.9951 21.6875C25.4587 21.8988 24.9058 22.0483 24.3366 22.1407C23.7282 22.2395 23.1149 22.2803 22.5006 22.2537C21.8187 22.224 21.1438 22.1402 20.4807 21.9564C19.6272 21.72 18.8428 21.3512 18.1457 20.8061C17.5685 20.3546 17.0879 19.8152 16.698 19.1912C16.3525 18.6383 16.0891 18.0509 15.8964 17.4307C15.7356 16.9135 15.6198 16.3849 15.5646 15.846C15.5336 15.5416 15.5127 15.2362 15.4918 14.9308L15.4918 14.9307L15.4918 14.9307L15.4918 14.9307L15.4918 14.9306L15.4918 14.9306L15.4918 14.9305C15.4822 14.7908 15.4727 14.651 15.4621 14.5114ZM25.9303 14.3088C25.9217 14.1738 25.9124 14.0373 25.903 13.8999C25.8825 13.5986 25.8617 13.2924 25.8465 12.986C25.8116 12.2806 25.7061 11.5848 25.5423 10.9001C25.3459 10.0796 25.0802 9.28492 24.5567 8.60149C24.22 8.16195 23.8072 7.83649 23.255 7.72396C22.5672 7.58381 21.9573 7.75467 21.4526 8.24144C21.0847 8.59632 20.8625 9.04928 20.6899 9.52392C20.5075 10.0251 20.3922 10.5439 20.3075 11.0704C20.1909 11.7972 20.1267 12.5287 20.1073 13.2635C20.0921 13.8388 20.0921 14.4146 20.0949 14.9901C20.0991 15.8336 20.1791 16.6711 20.3284 17.5011C20.4433 18.1389 20.603 18.7643 20.8525 19.3659C21.0227 19.777 21.2271 20.1662 21.5114 20.5074C22.1234 21.2415 22.875 21.4614 23.7705 21.1767C24.3229 21.0012 24.7009 20.5978 24.9819 20.1043C25.3962 19.3762 25.5864 18.5751 25.7041 17.7569C25.7789 17.2348 25.8274 16.7075 25.8604 16.1807C25.8871 15.7519 25.8996 15.3221 25.9123 14.8867L25.9123 14.8863C25.9179 14.695 25.9235 14.5026 25.9303 14.3088ZM72.7298 19.149C72.7001 19.1134 72.6703 19.0776 72.6405 19.0415C72.5667 19.0887 72.4943 19.1353 72.4228 19.1813C72.3153 19.2504 72.2097 19.3184 72.1036 19.3858C71.5252 19.751 70.8969 19.9825 70.2171 20.0558C69.7614 20.1048 69.3055 20.1237 68.8437 20.094C68.1349 20.0483 67.461 19.8883 66.8289 19.5726C65.8647 19.0913 65.1861 18.3294 64.7253 17.3633C64.4761 16.8412 64.3146 16.2915 64.208 15.7252C64.0929 15.1151 64.0571 14.498 64.0715 13.8775C64.0731 13.8016 64.1017 13.7817 64.1716 13.7841C64.2571 13.787 64.3426 13.7864 64.4282 13.7858C64.4631 13.7856 64.498 13.7854 64.5329 13.7854H73.0456C73.2143 13.7854 73.2143 13.7849 73.2146 13.6334L73.2146 13.6181C73.2164 12.9974 73.1522 12.3842 73.0363 11.7745C72.9115 11.1182 72.7187 10.4846 72.4285 9.88295C72.155 9.31592 71.8064 8.80153 71.3662 8.34625C70.8786 7.84193 70.3115 7.45685 69.6709 7.1874C69.1685 6.97628 68.6396 6.8524 68.0962 6.77781C67.3609 6.67689 66.63 6.70012 65.9 6.79897C65.3053 6.8795 64.7194 7.00803 64.166 7.24935L64.137 7.26196C63.8331 7.39456 63.5277 7.52776 63.2382 7.68837C62.508 8.09332 61.8852 8.62964 61.3549 9.27643C60.9731 9.74203 60.6428 10.243 60.3967 10.7891C60.1967 11.2328 60.0435 11.6994 59.8936 12.1637C59.6851 12.809 59.6082 13.4811 59.5693 14.1542C59.5213 14.9816 59.6046 15.8019 59.7906 16.6102C59.9599 17.3458 60.2272 18.045 60.607 18.6972C61.0262 19.4175 61.551 20.0493 62.1994 20.5805C62.9533 21.1984 63.7965 21.6387 64.7264 21.9182C65.3541 22.1069 65.9968 22.2086 66.6509 22.2452C67.284 22.2806 67.9123 22.2411 68.5372 22.1355C69.0506 22.0488 69.5499 21.9061 70.0334 21.7182C70.5169 21.5303 70.98 21.2952 71.4127 21.0064C72.0074 20.6097 72.5443 20.149 72.9716 19.5706C72.9904 19.545 73.0046 19.489 72.9904 19.4707C72.9069 19.362 72.819 19.2563 72.73 19.1493L72.7299 19.1493L72.7298 19.149ZM68.7039 12.5665C68.7018 12.5872 68.6995 12.6092 68.6976 12.6332C68.6438 12.6332 68.5911 12.6329 68.5391 12.6327H68.5391C68.4322 12.6321 68.3286 12.6316 68.225 12.6335C67.0048 12.6562 65.7847 12.6797 64.5646 12.7042C64.4356 12.7068 64.3068 12.7148 64.1781 12.7233C64.102 12.7285 64.0633 12.7034 64.0733 12.6213C64.0904 12.4823 64.1061 12.343 64.1219 12.2038L64.1219 12.2035L64.122 12.2031L64.122 12.2029C64.1573 11.8908 64.1927 11.5787 64.2421 11.2687C64.2939 10.9435 64.3711 10.6208 64.4601 10.3036C64.6381 9.66899 64.8837 9.06195 65.2806 8.52769C65.6075 8.08764 66.012 7.75289 66.5768 7.6863C67.0443 7.63133 67.4344 7.80038 67.744 8.15655C68.0108 8.46343 68.1752 8.82554 68.2964 9.20623C68.5284 9.93431 68.6401 10.6846 68.6718 11.4473C68.6858 11.7823 68.6992 12.117 68.7108 12.452C68.712 12.4883 68.7083 12.5246 68.7039 12.5664V12.5664V12.5665ZM84.9668 8.72765L84.9803 9.3821C84.9907 9.88827 85.0004 10.3558 85.0104 10.8231C85.0132 10.9519 85.0171 11.0807 85.0251 11.2092C85.03 11.2882 85.0109 11.3318 84.9229 11.3533C84.8386 11.3737 84.7558 11.4001 84.6729 11.4265L84.6728 11.4266C84.5965 11.4509 84.5201 11.4753 84.4425 11.495C84.4126 11.5024 84.3455 11.4655 84.3354 11.4356C84.1161 10.7929 83.854 10.1689 83.5039 9.58608C83.1063 8.92432 82.6045 8.36064 81.8795 8.0517C81.6075 7.93582 81.3085 7.86252 81.0149 7.82432C80.721 7.78612 80.4132 7.78096 80.1201 7.82277C79.4158 7.92317 78.9232 8.33483 78.6356 8.97568C78.3948 9.51201 78.3636 10.0757 78.5486 10.6355C78.6701 11.0033 78.9323 11.28 79.2253 11.5244C79.5695 11.8114 79.9563 12.0333 80.3593 12.2225C80.8823 12.4679 81.4125 12.6983 81.9423 12.9284L81.9909 12.9496C82.1452 13.0166 82.3014 13.0792 82.4577 13.1418L82.4579 13.1419C82.7028 13.24 82.9475 13.3381 83.1842 13.4531C83.8922 13.7972 84.5522 14.2173 85.0532 14.8404C85.4921 15.3863 85.7181 16.0199 85.7927 16.7155C85.8512 17.26 85.8234 17.8002 85.7065 18.3298C85.537 19.099 85.1964 19.7873 84.6592 20.3747C84.1866 20.8917 83.6241 21.2768 82.9938 21.572C82.3511 21.873 81.6744 22.0542 80.9746 22.1538C80.2582 22.2557 79.5381 22.2908 78.8156 22.2315C78.7134 22.2231 78.6112 22.215 78.5089 22.2069L78.5088 22.2069C78.072 22.1724 77.635 22.1378 77.201 22.0807C76.7382 22.0198 76.2761 21.936 75.8228 21.8257C75.5019 21.7478 75.1862 21.6489 74.8705 21.55C74.7245 21.5043 74.5784 21.4585 74.4318 21.4149C74.3441 21.3888 74.3232 21.3351 74.3214 21.2443C74.2999 20.1596 74.2739 19.075 74.248 17.9906L74.2478 17.9833L74.2437 17.8152C74.2386 17.5966 74.2311 17.378 74.2216 17.1594C74.2182 17.0835 74.2388 17.0445 74.3217 17.0267C74.4677 16.9955 74.6119 16.9526 74.7536 16.9044C74.8599 16.8682 74.9084 16.8876 74.9515 17.0022C75.2188 17.7133 75.5328 18.4026 75.9561 19.037C76.265 19.4998 76.6295 19.9146 77.0811 20.2418C77.7596 20.734 78.5316 20.9273 79.36 20.8979C80.0009 20.8752 80.5809 20.6788 81.0482 20.2188C81.4022 19.8704 81.606 19.4474 81.6785 18.9529C81.727 18.6225 81.7076 18.3004 81.6176 17.9845C81.4736 17.4792 81.1209 17.1351 80.6981 16.8525C80.0915 16.4473 79.4178 16.1846 78.7416 15.9247C78.6141 15.8757 78.4862 15.8275 78.3583 15.7793C77.8686 15.5947 77.3783 15.41 76.9103 15.1808C76.17 14.8185 75.5191 14.3247 75.0792 13.601C74.8839 13.2799 74.7407 12.9367 74.6509 12.571C74.4974 11.9448 74.4796 11.3107 74.5851 10.6789C74.6506 10.2863 74.7848 9.90947 74.9659 9.54969C75.2662 8.95245 75.6845 8.45304 76.2025 8.03802C76.605 7.7154 77.0424 7.44388 77.5287 7.26477L77.5791 7.24617C77.916 7.12185 78.2548 6.9968 78.6023 6.91272C78.8961 6.84156 79.1993 6.80632 79.5014 6.7712C79.5533 6.76518 79.605 6.75916 79.6567 6.75296C80.3606 6.66831 81.0629 6.72122 81.7659 6.77929C82.5 6.83968 83.2216 6.96408 83.9301 7.16075C84.1985 7.23528 84.4614 7.3305 84.7238 7.42553L84.7239 7.42558L84.8417 7.46815C84.8796 7.48182 84.9219 7.54506 84.924 7.58739C84.9399 7.91695 84.9508 8.24667 84.9599 8.52199L84.9599 8.5235L84.9668 8.72765ZM37.1117 10.0417C37.1419 8.94032 37.172 7.83875 37.203 6.71665C37.067 6.74376 36.934 6.7704 36.8032 6.79664C36.5166 6.85408 36.24 6.90953 35.9635 6.96339C35.7189 7.01075 35.4742 7.05704 35.2294 7.10333C34.9352 7.15897 34.6411 7.2146 34.3473 7.27207C33.9959 7.34085 33.6447 7.41092 33.2935 7.48099C32.9423 7.55107 32.5911 7.62115 32.2396 7.68993C31.745 7.7866 31.2493 7.87949 30.7539 7.97234L30.7362 7.97564C30.6684 7.98829 30.6279 8.01281 30.6307 8.09127C30.6351 8.21593 30.6356 8.34085 30.6312 8.46525C30.6284 8.54087 30.6578 8.57107 30.7321 8.58036C30.8475 8.59479 30.9626 8.61166 31.0777 8.62852C31.1746 8.64272 31.2715 8.65692 31.3686 8.66966C31.8438 8.73186 32.2291 8.93318 32.4424 9.3833C32.589 9.69275 32.6579 10.0262 32.6829 10.3659C32.6886 10.4438 32.6945 10.5218 32.7003 10.5998C32.7341 11.0488 32.7678 11.4983 32.7771 11.948C32.798 12.9791 32.8114 14.011 32.8021 15.042C32.7932 16.0106 32.7675 16.9792 32.7418 17.9477C32.736 18.1651 32.7303 18.3825 32.7247 18.5999C32.7108 19.146 32.6842 19.6924 32.4556 20.2027C32.2469 20.6685 31.8797 20.9209 31.3784 20.9893C31.2126 21.0119 31.0472 21.0369 30.8807 21.062C30.801 21.0741 30.7211 21.0861 30.6408 21.098V21.8653H30.827L39.5852 21.8656C39.5957 21.8656 39.6063 21.8661 39.617 21.8665C39.6457 21.8678 39.6745 21.8691 39.7005 21.8612C39.7263 21.8534 39.7629 21.8222 39.7634 21.8011C39.7669 21.6149 39.7667 21.4288 39.7664 21.2436C39.7663 21.1953 39.7663 21.1471 39.7663 21.099C39.6574 21.0897 39.5506 21.0801 39.4451 21.0706C39.207 21.0492 38.9759 21.0285 38.7446 21.0126C38.4236 20.9904 38.1124 20.9385 37.842 20.7506C37.5038 20.5155 37.3573 20.1575 37.3002 19.7763C37.2177 19.2258 37.1537 18.6693 37.1289 18.1134C37.0827 17.0828 37.052 16.0507 37.0497 15.0193C37.0473 14.0346 37.0659 13.0499 37.0844 12.0652C37.0897 11.786 37.095 11.5068 37.0998 11.2276C37.1008 11.1675 37.1367 11.0955 37.179 11.0503C37.4555 10.7546 37.8175 10.6116 38.1966 10.5073C38.7164 10.3641 39.2464 10.3432 39.7802 10.4046C40.209 10.4539 40.6236 10.5618 41.0168 10.7398C41.1825 10.8149 41.3444 10.898 41.5082 10.9821C41.5821 11.0201 41.6565 11.0583 41.7318 11.096C41.7356 11.0907 41.7398 11.0855 41.744 11.0803C41.753 11.0692 41.762 11.0581 41.7669 11.0454C41.8767 10.7644 41.9862 10.4831 42.0957 10.2018C42.1758 9.99615 42.2558 9.79047 42.3361 9.58487C42.4809 9.21346 42.6261 8.84217 42.7714 8.47084C42.8305 8.31964 42.8897 8.16843 42.9488 8.0172C42.9816 7.93331 43.0147 7.84953 43.0477 7.76575C43.1168 7.59049 43.1859 7.41523 43.2528 7.23904C43.2814 7.16341 43.3018 7.09967 43.1926 7.04185C42.4697 6.65935 41.7001 6.59612 40.9136 6.7262C40.4263 6.80673 39.9686 6.99488 39.5408 7.25143C38.6223 7.8022 37.962 8.59043 37.4476 9.51363C37.3767 9.64073 37.3105 9.7705 37.2444 9.90027C37.214 9.95997 37.1835 10.0197 37.1526 10.0791L37.1109 10.0724L37.1117 10.0417Z"/>
</symbol><symbol id="merchant" viewBox="0 0 128 17">
<path fill-rule="evenodd" clip-rule="evenodd" d="M127.311 2.18733C127.311 1.59582 126.985 1.08033 126.502 0.811647C126.509 0.851368 126.508 0.900116 126.486 0.964497C126.453 1.06253 126.396 1.15767 126.364 1.20889C126.28 1.34352 126.198 1.462 126.1 1.58641C126.014 1.69343 125.917 1.78858 125.818 1.88393C125.734 1.96595 125.649 2.04813 125.572 2.13815C125.316 2.43667 125.171 2.8977 125.25 3.28694C125.271 3.38638 125.318 3.51229 125.413 3.56491C125.977 3.87818 126.391 2.53471 126.2 2.13815C126.173 2.08692 126.121 1.9947 126.05 2.00793C125.696 2.07379 125.533 3.22399 125.753 3.30739C125.743 3.44352 125.527 3.52692 125.464 3.27521C125.443 3.1874 125.439 3.09517 125.442 3.00445C125.453 2.62102 125.759 2.04151 126.11 1.86448C126.27 1.78248 126.495 1.78399 126.584 1.96693C126.89 2.59926 126.097 3.75184 125.377 3.71754C125.494 3.74535 125.615 3.7601 125.739 3.76013C126.602 3.76045 127.311 3.0503 127.311 2.18733ZM126.337 0.824777C126.362 0.799862 126.386 0.776423 126.404 0.761694C126.202 0.667005 125.977 0.614098 125.739 0.614098C124.876 0.614205 124.166 1.32447 124.166 2.18722C124.166 2.81259 124.539 3.35757 125.073 3.61028C124.9 3.47382 124.836 3.22863 124.857 2.99272C124.879 2.72648 124.99 2.47326 125.144 2.25663C125.307 2.02678 125.52 1.88272 125.72 1.74771C125.899 1.6266 126.067 1.51277 126.179 1.35084C126.179 1.35084 126.188 1.33771 126.19 1.33039C126.194 1.31963 126.181 1.30693 126.165 1.31963C126.139 1.34309 126.003 1.41336 125.908 1.42498C125.716 1.44694 125.612 1.185 125.58 1.04015L125.578 1.0324C125.572 1.00433 125.568 0.986473 125.54 1.02401C125.497 1.08085 125.458 1.25971 125.419 1.43788C125.375 1.64055 125.331 1.84233 125.28 1.86255L124.908 2.01041C124.908 2.01041 124.892 2.01794 124.886 1.99577C124.853 1.8703 125.087 1.49872 125.239 1.25853L125.239 1.25843C125.278 1.19605 125.312 1.14253 125.334 1.1045C125.339 1.09707 125.351 1.07463 125.366 1.04708L125.366 1.04692C125.397 0.987972 125.442 0.905712 125.453 0.896699C125.48 0.873346 125.65 0.829439 125.685 0.83525L125.685 0.835681C125.733 1.28648 126.096 1.03036 126.252 0.904448C126.279 0.88297 126.309 0.852932 126.337 0.824777ZM123.9 2.18722C123.9 1.17768 124.729 0.347534 125.739 0.347534C126.753 0.347534 127.577 1.17219 127.578 2.18679C127.578 3.19612 126.748 4.02637 125.739 4.0267C124.73 4.02702 123.9 3.19676 123.9 2.18722ZM9.28934 13.7388H14.4068L9.11786 5.53805L13.8221 0.659946H8.8048L5.13678 4.88116V0.659946H0.858887V13.7388H5.13678V9.6002L6.15512 8.5403L9.28934 13.7388ZM19.7134 7.26613C19.9943 7.74642 20.1346 8.28869 20.1346 8.88671C20.1346 9.55296 20.0126 10.1603 19.7684 10.7087C19.5242 11.2572 19.1183 11.5299 18.5505 11.5299C17.9614 11.5299 17.5219 11.2479 17.2382 10.684C16.9511 10.1231 16.8077 9.52197 16.8077 8.88671C16.8077 8.29494 16.942 7.75568 17.2106 7.26925C17.4792 6.78585 17.879 6.54414 18.4071 6.54414C18.9992 6.54414 19.4327 6.78585 19.7134 7.26613ZM18.5663 14.0345C20.3583 14.0345 22.0908 13.3328 23.1017 11.8334C23.9119 10.6313 24.0729 8.66061 23.6219 7.26108C23.2089 5.97927 22.2604 4.90096 20.9854 4.37688C19.6219 3.81426 18.0848 3.72903 16.6646 4.12333C15.3753 4.46824 14.2508 5.31711 13.6373 6.49152C12.8398 8.0175 12.9609 10.3495 13.9076 11.7797C14.9397 13.3388 16.7196 14.0345 18.5663 14.0345ZM55.5958 6.63206C55.8993 6.87269 56.1195 7.30444 56.2533 7.92732H52.7307C52.8706 7.29035 53.0729 6.85504 53.3407 6.62141C53.6084 6.38444 53.9714 6.26757 54.4296 6.26757C54.9026 6.26757 55.2894 6.38788 55.5958 6.63206ZM52.7677 9.77443H59.9128C59.9573 9.05384 59.8877 8.37909 59.7045 7.67486C59.3333 6.27489 58.4403 5.1657 57.131 4.51505C55.6555 3.77907 53.5189 3.73646 51.9929 4.36493C50.7381 4.88396 49.7704 5.86272 49.3004 7.12828C48.8473 8.34821 48.8537 9.6906 49.3212 10.9008C49.8302 12.1425 50.7649 13.1047 52.0167 13.6251C53.0927 14.0745 54.4369 14.1134 55.5988 13.9706C56.5047 13.8672 57.4222 13.5742 58.1694 13.0484C58.91 12.5256 59.4853 11.73 59.6242 10.8283H55.9648C55.839 11.4638 55.1645 11.6993 54.5796 11.6993C53.7832 11.6993 53.2269 11.2371 52.9194 10.5524C52.8183 10.3273 52.7677 10.0689 52.7677 9.77443ZM66.596 14.0295C68.161 14.0295 69.4594 13.1922 70.1624 11.8516C70.8232 10.6013 70.947 8.683 70.59 7.28346C70.2081 5.7777 69.1354 4.438 67.5425 4.04058C66.0806 3.67242 64.2685 4.20265 63.5363 5.66202V4.24106H60.161V16.9852H63.973V12.8842C64.7326 13.6641 65.472 14.0295 66.596 14.0295ZM66.6536 7.43681C66.924 7.91043 67.0575 8.35014 67.0575 8.75295C67.0575 9.28683 66.9302 9.82555 66.7296 10.3182C66.508 10.8286 66.095 11.0839 65.4816 11.0839C64.8531 11.0839 64.4339 10.8379 64.2185 10.3459C64.0059 9.85385 63.8996 9.32191 63.8996 8.75295C63.8996 8.28859 64.0362 7.8366 64.3096 7.39376C64.5828 6.94791 64.9745 6.72655 65.4816 6.72655C65.9917 6.72655 66.3834 6.9633 66.6536 7.43681ZM74.0174 13.6142C75.4921 14.228 77.5054 14.1484 78.9866 13.6294C80.6493 13.0468 81.6018 11.6532 81.6412 10.0596H77.8718L77.8698 10.0658C77.6221 10.8599 77.4232 11.4978 76.4738 11.4978C75.8024 11.4978 75.1112 10.9581 74.9012 10.3215C74.5827 9.35581 74.666 8.05442 75.1695 7.17337C75.5642 6.48291 76.8008 6.14101 77.3471 6.84073C77.54 7.0876 77.672 7.37698 77.7406 7.84511H81.6412C81.4519 6.32321 80.7308 5.29053 79.3534 4.54067C77.908 3.75389 75.6469 3.73129 74.1247 4.35223C72.7946 4.89472 71.8733 5.67784 71.3405 7.04262C71.1106 7.64957 70.9738 8.28881 70.9738 8.93934C70.9738 9.91606 71.2378 10.8756 71.7459 11.7084C72.2657 12.5756 73.0888 13.2277 74.0174 13.6142ZM88.5466 9.57158C88.5786 9.6821 88.5945 9.82727 88.5945 10.0041C88.5945 10.5913 88.3744 11.09 87.9405 11.5037C87.4846 11.9609 86.5753 11.9878 86.0331 11.6615C85.5644 11.3544 85.5355 10.5944 86.0714 10.3293C86.4494 10.1221 86.899 10.0277 87.3217 9.95038C87.8768 9.84309 88.2851 9.71675 88.5466 9.57158ZM88.9337 13.7388H92.8356V13.444C92.4532 13.1948 92.2605 12.8118 92.2605 12.295V7.27366C92.1982 6.53198 92.0643 5.9274 91.8662 5.46207C91.667 4.99426 91.24 4.74341 90.5855 4.43208C89.9297 4.12032 88.946 3.96406 87.6327 3.96406C87.0931 3.96406 86.607 3.98365 86.1682 4.01873C85.7325 4.05349 85.3492 4.10041 85.0268 4.16767C84.359 4.30703 83.8379 4.51731 83.4585 4.78775C83.079 5.05829 82.8015 5.38405 82.6254 5.76339C82.5119 6.00792 82.4804 6.24551 82.4402 6.54944C82.4178 6.71848 82.3927 6.90805 82.3492 7.13075H85.9636C86.0347 6.78735 86.1859 6.5563 86.4201 6.44083C86.6543 6.32536 87.1371 6.26757 87.5255 6.26757C87.8486 6.26757 88.0977 6.32837 88.2725 6.44998C88.4475 6.57148 88.5334 6.72041 88.5334 6.89981C88.5334 6.91472 88.5336 6.92958 88.5338 6.94441C88.5353 7.05952 88.5369 7.17206 88.445 7.27969C88.3412 7.4013 88.1308 7.59414 87.9524 7.65323C87.7051 7.73501 87.1915 7.811 86.6249 7.89482C86.5272 7.90927 86.428 7.92396 86.3283 7.93894L84.7303 8.17903C84.5476 8.20648 84.3557 8.26171 84.1532 8.31995L84.1462 8.32195C83.9392 8.38146 83.7282 8.4527 83.5147 8.5347C83.0642 8.70786 82.8144 8.87348 82.5593 9.16823C82.1119 9.685 81.7864 10.2615 81.7864 10.9607C81.7864 11.5138 81.9138 12.0549 82.1688 12.5899C82.4535 13.0762 82.8655 13.4379 83.411 13.6689C83.9565 13.9 84.5584 14.0154 85.2165 14.0154C85.5811 14.0154 85.931 13.985 86.2601 13.9272C86.5891 13.8665 86.9107 13.7712 87.2235 13.6506C87.8653 13.4034 88.5008 13.1005 88.7855 12.7328L88.9337 13.7388ZM99.6746 13.7388H103.439L103.435 13.5686L103.439 4.24623H99.6326V7.42691H96.8869V4.24623H93.1592L93.1556 4.38914L93.1592 13.7388H96.8869V10.1891H99.6746V13.7388ZM110.656 7.04391H113.897V4.24623H103.612V7.04391H106.881V13.7388H110.656V7.04391ZM125.088 12.7899C125.726 12.2675 126.123 11.5349 126.123 10.7011C126.123 9.83168 125.685 9.06751 125.026 8.52114C124.149 7.79431 122.923 7.57789 121.817 7.57789H119.829V4.24623H114.02V7.04391H116.197V13.7388H122.023C123.089 13.7388 124.249 13.4843 125.088 12.7899ZM121.469 9.79111C122.039 9.85945 122.371 10.1111 122.371 10.7108C122.371 11.3784 121.986 11.536 121.407 11.579C121.243 11.5918 121.031 11.6026 120.773 11.5972L119.829 11.579V9.74569C119.991 9.74569 120.445 9.75173 120.785 9.7669C121.124 9.78143 121.353 9.79111 121.469 9.79111ZM29.345 13.7387H31.1745L33.1735 7.39742L32.8648 9.88291V13.7387H36.2031V4.19145H31.9218L30.2598 9.46515L28.5978 4.19145H24.3165V13.7387H27.6547V9.88291L27.346 7.39742L29.345 13.7387ZM41.8462 13.7387H43.6757L45.6747 7.39742L45.3659 9.88291V13.7387H48.7041V4.19145H44.4229L42.7609 9.46515L41.0989 4.19145H36.8176V13.7387H40.1559V9.88291L39.8471 7.39742L41.8462 13.7387Z"/>
</symbol><symbol id="PBK" viewBox="0 0 78 22">
<path fill-rule="evenodd" clip-rule="evenodd" d="M0.324951 0.631226V19.8539L19.5412 0.631226H0.324951ZM1.69755 21.227H20.9138V2.00429L1.69755 21.227ZM35.1299 7.34308C35.1299 9.38812 33.9421 10.4826 31.7078 10.4826H29.3886V4.17437H31.7078C33.8854 4.17437 35.1299 5.03847 35.1299 7.22753V7.34308ZM31.8209 0.631226H24.8354V21.227H29.3886V13.7378H31.9621C36.5723 13.7378 39.5418 11.6636 39.5418 7.31394V7.19906C39.5418 2.84909 36.7418 0.631226 31.8209 0.631226ZM48.6061 17.6838C50.7982 17.6838 51.9082 16.7045 51.9082 14.832V14.7171C51.9082 12.8733 50.7982 11.8652 48.4951 11.8652H45.9422V17.6838H48.6061ZM48.7726 21.227H41.5026V0.631226H54.4332V4.26078H45.9702L45.9422 8.58129H48.9112C53.4897 8.58129 56.2089 10.6267 56.2089 14.7455V14.8611C56.2089 18.8936 53.684 21.227 48.7726 21.227ZM64.2987 0.659988H59.5178V21.227H64.2987V11.9933L71.5877 21.227H77.1654L68.4006 10.3826L76.7523 0.631226H71.6763L64.2987 9.5197V0.659988Z"/>
</symbol><symbol id="republic" viewBox="0 0 107 25">
<path d="M106.259 18.5713C106.259 18.5713 105.856 19.0136 105.318 19.3239C104.331 19.8996 103.3 20.2091 102.18 20.3418C101.821 20.386 101.507 20.386 101.149 20.386C96.8901 20.386 94.6937 17.7311 94.6937 14.1018C94.6937 9.01232 98.9522 7.81753 101.731 7.81753C102.538 7.81753 103.344 7.95021 104.151 8.30399C105.362 8.83543 106.124 9.94101 106.124 11.0923C106.124 12.2436 105.451 13.0839 104.151 13.0839C103.389 13.0839 102.852 12.7743 102.583 12.1544C102.448 11.8449 102.448 11.5346 102.404 11.225C102.359 10.9154 102.359 10.6051 102.224 10.2956C102.045 9.76412 101.552 9.45455 101.059 9.49878C100.701 9.49878 100.386 9.63145 100.118 9.94101C99.7592 10.339 99.6249 10.8705 99.6249 11.4011C99.5353 13.1274 99.7145 14.8528 100.611 16.4021C101.329 17.6854 102.584 18.4379 103.883 18.4379C104.242 18.4379 104.646 18.3937 105.004 18.261C105.407 18.1284 105.766 17.9515 106.125 17.7296L106.259 18.5706V18.5713ZM29.2493 17.5977C29.2493 17.5977 29.3837 18.306 29.4285 18.4387C29.3837 18.5271 29.1149 18.7482 29.0701 18.7925C27.9943 19.6335 25.7531 20.341 24.4085 20.341C20.15 20.341 17.5952 18.1284 17.5952 14.0568C17.5952 10.0295 20.8675 7.81678 24.0502 7.81678C26.8297 7.81678 29.1605 9.23269 29.1605 12.4633C29.1605 12.7286 29.1605 12.7286 29.1605 12.9055L23.0191 15.3835L23.1983 15.7815C23.5119 16.4898 23.9158 17.1532 24.6325 17.6846C25.7531 18.5256 27.5016 18.5698 28.891 17.8173C28.9806 17.7731 29.0701 17.6846 29.2493 17.5962V17.5977ZM22.66 14.1902C23.0632 14.0133 24.1838 13.5261 24.2734 13.4819C24.7213 13.2608 24.9012 13.0839 24.946 12.7293C24.9908 12.4198 24.946 11.4903 24.946 11.2692C24.8565 10.1187 24.4533 9.49878 23.915 9.49878C22.436 9.49878 22.1665 11.4903 22.66 14.1895V14.1902ZM90.7495 6.13629C92.2285 6.13629 93.3939 4.98573 93.3939 3.5256C93.3939 2.06548 92.1837 0.914917 90.7495 0.914917C89.2706 0.914917 88.1052 2.06548 88.1052 3.5256C88.1052 4.98573 89.2706 6.13629 90.7495 6.13629ZM18.4015 19.0143V19.8996H11.9018C10.6468 17.7311 9.5262 15.6953 8.2712 13.5711C8.2264 13.5711 8.13681 13.5269 8.09202 13.5269C8.09202 14.8543 8.09202 16.7132 8.09202 17.3773C8.09202 18.5721 8.49517 19.0143 9.70537 19.0143C9.75017 19.0143 9.83976 19.0143 9.88455 19.0143V19.8996H0.785246V19.0586C1.09881 19.0143 1.36833 19.0143 1.68189 18.9701C2.21942 18.8374 2.57853 18.4387 2.62333 17.8638C2.62333 17.7311 2.62333 8.57008 2.62333 7.59717C2.62333 7.33183 2.53374 7.11071 2.35456 6.93306C1.90662 6.49083 1.14436 5.73828 0.741211 5.34027C0.875594 5.29604 1.00998 5.25182 1.14436 5.16337L7.77846 2.46424V4.4558C7.77846 4.4558 8.00243 4.01356 8.45113 3.57058C9.03422 3.03989 9.9749 2.64113 11.1851 2.64113C12.8432 2.64113 14.4574 3.52635 15.3092 4.80959C15.9819 5.82748 16.3402 6.97804 16.3402 8.1286C16.3402 12.0233 12.9336 13.7045 10.0645 13.7045C9.9749 13.7045 9.88531 13.7045 9.79572 13.7045L9.75093 13.8372C10.558 14.1025 11.5442 14.191 12.3505 14.191C13.1128 14.191 13.9191 14.1025 14.4126 14.0141L16.7882 18.2183C17.2809 19.1035 18.1776 19.0151 18.4015 19.0151V19.0143ZM7.95764 8.43741C7.95764 10.5616 7.95764 12.2429 9.34702 12.2429C10.7364 12.2429 10.7364 10.5167 10.7364 8.43666C10.7364 6.31244 10.602 4.63119 9.34702 4.63119C8.09202 4.63119 7.95764 6.31319 7.95764 8.43666V8.43741ZM85.1905 18.9701C84.5178 18.9259 84.1595 18.5721 84.1595 17.9522C84.1595 17.8195 84.1595 17.6427 84.1595 17.51V2.1097L77.3014 4.89803C77.3014 4.89803 78.1085 5.73903 78.5564 6.13704C78.6908 6.26971 78.7804 6.44661 78.8252 6.66772C78.8252 10.1194 78.8252 14.1467 78.8252 17.5542C78.8252 17.6869 78.8252 17.8638 78.7804 17.9964C78.6908 18.6163 78.3772 18.8817 77.7493 18.9259C77.5702 18.9259 77.391 18.9259 77.211 18.9259V19.8111H85.728V18.9259C85.5489 18.9701 85.3697 18.9701 85.1897 18.9701H85.1905ZM93.9762 18.9701C93.3484 18.9259 92.99 18.5721 92.9452 17.9522C92.9452 17.8195 92.9452 13.2173 92.9452 13.2173V7.68561L86.1319 10.4739C86.1319 10.4739 86.939 11.3149 87.3869 11.713C87.5661 11.8898 87.6557 12.111 87.6557 12.4655C87.6557 12.4655 87.6557 17.6434 87.6557 17.7761C87.6557 18.6171 87.2526 19.0151 86.5799 19.0151C86.4007 19.0151 86.2215 19.0151 86.0416 19.0151V19.9003H94.5586V19.0151C94.3346 18.9709 94.1554 18.9709 93.9755 18.9709L93.9762 18.9701ZM61.0753 18.9701C60.3578 18.9259 59.9994 18.5721 59.9546 17.8638C59.9546 17.7311 59.9546 7.64139 59.9546 7.64139L53.0966 10.4297C53.0966 10.4297 53.9036 11.2707 54.3516 11.6687C54.4859 11.8014 54.5755 11.9783 54.6203 12.2002C54.6203 13.0412 54.6203 15.9614 54.6203 16.5813C54.6203 17.2896 54.082 17.7761 53.3653 17.7761C52.7375 17.7761 52.1999 17.2896 52.1999 16.5813C52.1999 16.4044 52.1999 7.59792 52.1999 7.59792L45.3418 10.3862C45.3418 10.3862 46.1489 11.2272 46.5968 11.6253C46.776 11.8021 46.8656 12.0233 46.8656 12.2894C46.8656 12.3336 46.8656 16.8032 46.8656 16.8032C46.8656 18.5294 47.8966 19.8126 49.51 20.1222C49.9579 20.2106 50.3618 20.2548 50.765 20.2548C52.244 20.2548 53.499 19.6792 54.5748 18.4844C54.6196 18.396 54.7092 18.3517 54.754 18.2633C54.7987 18.2633 54.8435 18.3075 54.8435 18.3075V19.8119H61.4776V18.9266C61.3881 18.9709 61.2089 18.9709 61.0745 18.9709L61.0753 18.9701ZM43.9517 10.0302C44.6244 11.0481 44.9379 12.3313 44.9827 13.703C44.9827 15.4292 44.4444 17.1989 43.2342 18.4379C42.1584 19.5 40.5451 20.3853 38.1239 20.3853C37.6312 20.3853 37.1377 20.2968 36.6001 20.1641C36.6001 20.1641 36.6001 22.3326 36.6001 22.8191C36.6001 23.6601 36.9585 24.0138 37.8103 24.0581C37.9447 24.0581 38.0791 24.0581 38.2135 24.0581V24.9433H29.6965V24.1023C29.9205 24.1023 30.1445 24.0581 30.414 24.0581C30.9523 23.9696 31.3106 23.6601 31.3106 23.1286C31.3106 22.9959 31.3106 15.9149 31.3106 12.4633C31.3106 12.1537 31.221 11.9318 31.0419 11.7107C30.5939 11.3127 29.7869 10.4717 29.7869 10.4717L36.421 7.77256V9.67567L36.5105 9.7199C36.5105 9.7199 36.7793 9.23344 37.0936 8.92312C37.9903 8.12635 38.8869 7.90523 39.8732 7.90523C41.4417 7.81678 43.1006 8.70201 43.9525 10.0295L43.9517 10.0302ZM39.3797 14.3229C39.3797 11.8449 39.2453 9.80909 37.9903 9.80909C36.7353 9.80909 36.6009 11.8449 36.6009 14.3229C36.6009 16.8009 36.6009 18.8367 37.9903 18.8367C39.3797 18.8367 39.3797 16.8009 39.3797 14.3229ZM75.4193 9.72064C76.3159 10.8712 76.6743 12.1544 76.6743 13.6595C76.6743 15.6953 76.0912 17.4208 74.4778 18.7932C73.4468 19.6784 71.8783 20.3418 69.637 20.3418C68.5612 20.3418 67.4854 20.1649 66.4544 19.6335C65.9616 19.3681 65.5129 19.102 65.0202 18.7482C64.6618 19.0578 63.7652 19.8546 63.7652 19.8546H63.0029V6.84387C63.0029 6.5343 62.9133 6.31319 62.7342 6.09132C62.2862 5.69331 61.4792 4.85231 61.4792 4.85231L68.3372 2.06398V9.32188L68.4268 9.36611C68.4268 9.36611 69.3235 7.77331 71.6543 7.77331C73.1333 7.81753 74.5234 8.52586 75.4193 9.72064ZM71.116 14.3229C71.116 11.8449 70.9816 9.80909 69.7266 9.80909C68.4716 9.80909 68.3372 11.8449 68.3372 14.3229C68.3372 16.8009 68.3372 18.8367 69.7266 18.8367C71.116 18.7925 71.116 16.8009 71.116 14.3229Z"/>
</symbol><symbol id="statements" viewBox="0 0 123 23">
<path fill-rule="evenodd" clip-rule="evenodd" d="M92.7862 7.67929H93.2381L93.033 0.890137H92.6214L91.2649 2.4947C90.2363 1.54838 89.1274 1.3016 88.3867 1.3016C84.6462 1.3016 82.0966 5.58043 82.0966 10.8061C82.0966 15.1673 84.152 20.3504 88.3867 20.3504C91.9227 20.3504 93.0738 16.3198 93.4437 13.2746L93.033 13.151C92.7042 15.5785 91.7989 18.7461 89.4968 18.7461C87.4414 18.7461 87.4006 15.6198 87.4006 14.7971V6.36281C87.4006 5.08737 87.4822 2.41285 89.2915 2.41285C90.9361 2.41285 92.3746 4.7172 92.7862 7.67929ZM44.0292 3.64724C44.0292 2.49519 44.3993 2.00163 45.016 2.00163C45.5917 2.00163 46.0026 2.49543 46.0026 3.64724V18.0485C46.0026 19.1585 45.5917 19.6528 45.016 19.6528C44.3993 19.6528 44.0292 19.1583 44.0292 18.0485V3.64724ZM38.6846 10.8474C38.6846 15.3735 40.8224 20.3509 45.0158 20.3509C49.2087 20.3509 51.3054 15.3735 51.3054 10.8474C51.3054 6.28046 49.2087 1.30209 45.0158 1.30209C40.8224 1.30209 38.6846 6.28046 38.6846 10.8474ZM15.7851 2.37157H14.5109V1.67204H25.8578V8.21392H25.4466C24.9112 2.41262 22.034 2.37133 21.1297 2.37133H20.8008V10.3946H21.0472C22.6917 10.3946 23.3497 8.3378 23.2674 6.48597H23.7196V14.9205H23.2674C23.3497 13.0689 22.6917 11.0529 21.0472 11.0529H20.8008V19.2819C24.254 19.3645 25.4464 16.1546 25.7342 12.9047H26.1862V19.9406H14.5105V19.2819H15.7851V2.37157ZM6.57651 10.0658V2.37159H7.23423L7.28353 2.37141C7.78021 2.36877 8.54992 2.36468 8.54992 4.59334V7.80272C8.54992 10.0676 7.75492 10.0665 7.25968 10.0658L7.23423 10.0658H6.57651ZM1.5193 19.2822H0.286379V19.9409H9.24842C11.4277 19.9409 13.6889 19.1583 13.6889 15.62C13.6889 13.193 12.8254 10.8887 9.45399 10.5593V10.2713C11.0988 10.1484 13.4011 9.36623 13.4011 5.95162C13.4011 2.08376 10.3996 1.67229 9.41346 1.67229H0.286133V2.37183H1.5193V19.2822ZM6.57651 19.2822V10.724H7.23423L7.25969 10.724C7.75516 10.7233 8.54992 10.7222 8.54992 12.9871V17.0181C8.54992 19.2839 7.75445 19.2829 7.25924 19.2822L7.23423 19.2822H6.57651ZM32.2722 19.2822V2.37182H31.4087C31.0388 2.37182 30.5864 2.41311 30.5864 3.85324V9.40751C30.5864 13.9331 30.4218 17.1017 28.9421 19.2822H32.2722ZM28.4486 2.37182V1.67228V1.67204H38.5623V2.37157H37.3292V19.2822H38.8914V22.9435H38.4803C38.398 20.2292 37.4114 19.9411 35.2322 19.9411H30.8745C28.6957 19.9411 27.7086 20.2292 27.6266 22.9435H27.2155V19.2824H27.4623C29.0654 19.2824 30.0932 16.8139 30.0932 9.40775V4.05872C30.0932 2.45441 29.5175 2.37182 29.1064 2.37182H28.4486ZM53.4856 3.77065H53.5267L57.0619 19.9409H57.7606L61.3373 3.85324H61.4194V19.2822H60.1862V19.9409H67.71V19.2822H66.4763V2.37157H67.71V1.67204H61.3786L59.7343 9.11943H59.6518L58.0487 1.67204H51.7176V2.37157H52.9922V17.0181C52.9922 19.0344 52.2517 19.3225 51.7176 19.2822V19.9409H55.0887V19.2822H54.7598C54.1844 19.2822 53.4856 19.0767 53.4856 17.0181V3.77065ZM73.6292 3.64724C73.6292 2.49519 74.0399 2.00163 74.6156 2.00163C75.2325 2.00163 75.6019 2.49543 75.6019 3.64724V18.0485C75.6019 19.1585 75.2325 19.6528 74.6156 19.6528C74.0399 19.6528 73.6292 19.1583 73.6292 18.0485V3.64724ZM68.3254 10.8474C68.3254 15.3735 70.4221 20.3509 74.6156 20.3509C78.808 20.3509 80.9465 15.3735 80.9465 10.8474C80.9465 6.28046 78.808 1.30209 74.6156 1.30209C70.4221 1.30209 68.3254 6.28046 68.3254 10.8474ZM97.9267 2.37159L97.9245 2.37178V2.37159H97.925H97.9267ZM97.9245 2.37178C95.5824 2.57962 94.7606 6.24007 94.5966 8.21418H94.185V1.67229H106.724V8.21418H106.272C106.107 6.23969 105.284 2.57732 102.981 2.37159V19.2822H104.462V19.9409H96.4035V19.2822H97.9245V2.37178ZM113.96 14.4272H113.879V2.37159H114.495V1.67229H107.586V2.37159H108.822V19.2822H107.586V19.9409H114.495V19.2822H113.879V17.2659L115.77 6.48623H115.851V19.2822H115.234V19.9409H122.141V19.2822H120.908V2.37159H122.141V1.67229H115.234V2.37159H115.851V3.60598L113.96 14.4272Z"/>
</symbol><symbol id="vcru" viewBox="0 0 48 44">
<path d="M37.9371 20.2568C41.3703 20.2568 43.955 18.8377 45.8607 16.367L43.3137 14.4389C42.6845 15.2616 41.8714 15.9281 40.9384 16.3858C40.0054 16.8435 38.978 17.08 37.9371 17.0766C34.2111 17.0766 31.5112 14.0648 31.5112 10.3692C31.5112 6.67357 34.1671 3.49215 38.0434 3.49215C39.7664 3.49215 40.9843 3.89577 42.0466 4.54877V7.79833H45.2518V3.06025L44.6377 2.58076C42.8758 1.20535 40.1849 0.47522 37.9358 0.47522C32.4375 0.47522 27.9653 4.91256 27.9653 10.3679C27.9653 15.8182 32.4349 20.2568 37.9358 20.2568H37.9371ZM44.5872 39.7697L44.4732 35.2154V24.1015H37.7882V27.283H41.097V34.8233C41.097 38.0716 38.5966 40.3712 36.0741 40.3712C33.5517 40.3712 32.2354 38.6359 32.2354 35.3889V24.1002H25.9909V27.2817H28.8592V35.9403C28.8592 40.3468 31.3493 43.383 35.7904 43.383C38.3426 43.383 40.286 41.978 41.4455 39.8121H41.4973L41.9546 42.8406H47.0915V39.7735H44.5911V39.7671L44.5872 39.7697ZM27.2269 0.941841H21.656L16.8107 14.9016H16.7355L11.9161 0.941841H5.97988V4.12455H9.31851L15.0643 20.0357H18.1166V20.0318L24.1085 4.12585H27.2243V0.943135L27.2269 0.941841ZM0.766602 42.8817H4.06766V39.6077H0.767897V42.8817H0.766602ZM13.5148 27.7907H13.4785L13.2712 24.1015H7.37907V27.0015H10.5143V39.7709H7.37907V42.8393H21.941V39.8314H13.8335V32.1252C14.2001 29.3358 16.308 26.9539 19.1841 26.9539H19.2359L19.1776 29.805H22.3828V24.0488H19.8487C16.9467 24.0411 14.7935 25.599 13.5135 27.792L13.5148 27.7907Z"/>
</symbol></svg>