<svg width="126" height="21" viewBox="0 0 126 21" xmlns="http://www.w3.org/2000/svg">
<path fill-rule="evenodd" clip-rule="evenodd" d="M17.0978 0.631226H9.40096V4.86071H17.0978V0.631226ZM109.46 6.27054H105.987C104.654 6.27054 103.503 6.33186 102.9 6.47426C101.958 6.69842 101.208 7.18974 100.655 7.95105C100.003 8.82233 99.664 9.83811 99.664 10.8849V20.3688H103.862V11.2049C103.876 9.64778 105.122 9.09019 105.822 9.09019H109.46V6.27054ZM91.2675 20.3688V6.27054H87.0692V20.3688H91.2675ZM48.6493 6.62581C48.0042 6.38967 47.2093 6.27054 45.8742 6.27054H38.7889V9.10077L44.2572 9.08596L46.1254 9.09442C47.3541 9.10711 48.1875 10.3471 48.1231 11.1105L48.1343 11.919L41.3128 11.9239C40.1989 11.9239 39.5586 12.0868 38.8218 12.9052C38.085 13.7046 37.6274 14.7633 37.6274 16.0068C37.6274 17.184 38.0361 18.5805 38.8365 19.3502C39.6356 20.1228 40.6236 20.3688 41.7697 20.3688H52.0975V12.3857C52.0975 10.7639 51.9769 10.3854 51.8158 9.8793C51.7863 9.78685 51.7555 9.69014 51.7239 9.58081C51.4076 8.8181 51.0073 8.25346 50.3944 7.64089C49.9256 7.1827 49.3084 6.84575 48.6493 6.62581ZM25.4944 6.27759V0.631226H21.3451V20.3688H30.3056C32.0227 20.3688 33.4123 19.764 34.5067 18.252C35.5115 16.852 36.0223 15.1976 36.0223 13.2795C36.0223 11.4397 35.5115 9.83458 34.492 8.49807C33.3956 7.06357 32.0045 6.34455 30.3532 6.27759H25.4944ZM74.4743 13.3514V0.631226H70.276V20.3688H74.4743V13.3584L79.9426 20.3688H84.97L79.0498 13.3556L84.956 6.34455H79.9713L74.4743 13.3514ZM65.0842 6.47426C64.5083 6.33116 63.5721 6.27054 62.2951 6.27054H54.1826V20.3519L58.3809 20.3688V9.08314L61.6605 9.07751C61.6605 9.07751 63.9863 9.01336 63.994 11.3375L63.9786 20.3688H68.1769L68.1685 10.8349C68.1685 9.78806 67.8564 8.82162 67.2351 7.95035C66.7054 7.18975 65.9889 6.69842 65.0842 6.47426ZM115.791 15.3019L115.806 6.27054H111.608L111.617 15.8045C111.617 16.8513 111.929 17.8177 112.551 18.689C113.08 19.4496 113.796 19.9409 114.701 20.1651C115.277 20.3082 116.214 20.3688 117.491 20.3688H125.602V6.28746L121.404 6.27054V17.5562L118.125 17.5618C118.125 17.5618 115.799 17.626 115.791 15.3019ZM25.4734 9.09019H28.9125H28.9132C29.8655 9.09019 30.6373 9.51385 31.253 10.3851C31.8751 11.2493 32.1767 12.2496 32.1767 13.3761C32.1767 14.4708 31.8884 15.4556 31.316 16.2895C30.7562 17.1213 30.0152 17.5492 29.0937 17.5492H25.4734V9.09019ZM42.743 14.7387L48.1042 14.7295L48.1231 17.5485H42.6968C42.6612 17.5485 42.6266 17.5486 42.593 17.5488C42.2257 17.5509 41.9764 17.5523 41.6648 17.2933C41.3408 17.0148 41.126 16.6638 41.126 16.2267C41.126 15.7389 41.3485 15.34 41.6872 15.0446C42.0468 14.7464 42.743 14.7387 42.743 14.7387ZM91.2675 1.33614H87.0692V4.86071H91.2675V1.33614ZM93.3666 16.8442H97.5649V20.3688H93.3666V16.8442ZM5.20269 8.38528H17.0978V12.6148H5.20269V8.38528ZM17.0978 16.1393H0.304688V20.3688H17.0978V16.1393Z" />
</svg>
