<svg width="86" height="23" viewBox="0 0 86 23" xmlns="http://www.w3.org/2000/svg">
<path fill-rule="evenodd" clip-rule="evenodd" d="M48.9003 0.87236L48.9001 0.821533C48.8817 0.823005 48.8652 0.823982 48.85 0.824885C48.8198 0.826675 48.7946 0.828171 48.7698 0.832631L48.5035 0.879116C48.0976 0.949954 47.6917 1.0208 47.2862 1.09408C46.9855 1.1485 46.685 1.20421 46.3845 1.25992L46.3841 1.25997L46.384 1.26001L46.3838 1.26004L46.3836 1.26008L46.3834 1.26011C46.0985 1.31293 45.8135 1.36576 45.5284 1.41748C45.1822 1.48022 44.8358 1.54192 44.4894 1.60362L44.489 1.6037C44.1686 1.66076 43.8483 1.71782 43.528 1.77571C43.1653 1.84127 42.8028 1.90837 42.4416 1.9809C42.4055 1.98813 42.3536 2.03691 42.351 2.06994C42.3407 2.20234 42.3394 2.33681 42.3513 2.46896C42.3546 2.50767 42.408 2.56626 42.4465 2.57349C42.5397 2.59112 42.6339 2.60337 42.7281 2.61562C42.8298 2.62884 42.9314 2.64206 43.0316 2.66201C43.4901 2.75312 43.8671 2.96941 44.0833 3.40404C44.3188 3.87713 44.4156 4.38609 44.4365 4.90899C44.4641 5.59579 44.4873 6.28284 44.4984 6.97015C44.5131 7.89877 44.5227 8.82766 44.5201 9.75629C44.5126 12.4353 44.5002 15.1141 44.4847 17.7929C44.4822 18.2538 44.4711 18.7145 44.46 19.1753V19.1755V19.1756V19.1758V19.1759L44.46 19.1783C44.4545 19.4081 44.449 19.6379 44.4445 19.8677C44.4406 20.0666 44.4371 20.2656 44.4336 20.4645L44.4336 20.4651L44.4335 20.4657L44.4335 20.4663L44.4335 20.4669C44.4278 20.7915 44.4221 21.1162 44.4146 21.4408C44.4125 21.5304 44.4298 21.5778 44.533 21.5962C44.8482 21.6519 45.1631 21.7104 45.4779 21.7689C45.968 21.8599 46.458 21.951 46.9498 22.0316C47.3966 22.105 47.8491 22.1467 48.3005 22.1883L48.3562 22.1934C48.5325 22.2097 48.7095 22.2163 48.8866 22.2229C49.0231 22.228 49.1596 22.2331 49.2958 22.2427C49.9674 22.2897 50.639 22.2626 51.3024 22.1751C51.8401 22.1041 52.3726 21.974 52.8984 21.8359C53.578 21.6573 54.2099 21.3577 54.8041 20.9832C55.4855 20.554 56.0768 20.0236 56.574 19.3876C57.1236 18.6843 57.5219 17.9015 57.7967 17.0563C58.0054 16.4141 58.1272 15.7534 58.2031 15.0808C58.331 13.9457 58.274 12.8248 57.9969 11.7178C57.8519 11.1386 57.6406 10.5817 57.3566 10.0549C57.0457 9.47858 56.6653 8.9531 56.195 8.49446C55.8279 8.13648 55.423 7.8309 54.9744 7.58157C54.4021 7.2636 53.7929 7.05738 53.1451 6.96963C52.3718 6.86458 51.6032 6.90975 50.8385 7.05867C50.2071 7.18153 49.6083 7.39497 49.0404 7.69565L49.027 7.70272C48.9198 7.75944 48.8659 7.788 48.8392 7.77174C48.8121 7.75526 48.8131 7.69266 48.815 7.56657L48.8152 7.55938L48.8149 7.55293L48.8147 7.54647C48.8163 7.15636 48.8174 6.76623 48.8185 6.37608V6.37603V6.37597V6.37592V6.37586C48.8212 5.42439 48.8239 4.47287 48.8345 3.52147C48.8411 2.93722 48.8588 2.35309 48.8766 1.769V1.76882V1.76863V1.76845V1.76827C48.8847 1.50189 48.8928 1.23553 48.8998 0.969164C48.9007 0.937923 48.9005 0.906684 48.9003 0.87236ZM53.6882 14.2701L53.6523 14.2727C53.6706 15.1009 53.5953 15.924 53.4358 16.7339C53.3236 17.3038 53.167 17.8685 52.9815 18.4193C52.7483 19.1125 52.4064 19.7575 51.9092 20.3036C51.3981 20.8652 50.7864 21.2276 49.9948 21.191C49.6903 21.1768 49.3864 21.1584 49.0822 21.1399C48.9566 21.1321 48.9029 21.0746 48.9001 20.9357C48.8917 20.5251 48.879 20.1146 48.8663 19.704C48.855 19.3413 48.8438 18.9786 48.8355 18.6159C48.8175 17.8251 48.8046 17.0343 48.7984 16.2435C48.787 14.7602 48.7767 13.2767 48.7765 11.7934C48.7765 11.2519 48.7833 10.7104 48.7901 10.1689V10.1688V10.1686V10.1685V10.1683C48.7952 9.76019 48.8003 9.35202 48.8025 8.9438C48.8033 8.82043 48.8257 8.76004 48.9586 8.71849C49.374 8.58815 49.7907 8.47639 50.2293 8.46736C51.0291 8.4511 51.6876 8.7603 52.2255 9.33946C52.6832 9.83217 52.9732 10.4214 53.1897 11.0512C53.3633 11.5557 53.4908 12.0727 53.5473 12.6028C53.5885 12.9896 53.6184 13.3777 53.6484 13.7657L53.6484 13.7659L53.6484 13.7661L53.6484 13.7664L53.6484 13.7666L53.6485 13.7668C53.6614 13.9346 53.6743 14.1024 53.6882 14.2701ZM13.6855 8.3564V8.09804H13.6854C13.4734 8.09804 13.277 8.09804 13.0812 8.09882C12.8135 8.09882 12.8133 8.09957 12.7638 8.35792L12.7615 8.36956C12.6441 8.97995 12.455 9.56402 12.0874 10.0748C11.8232 10.4418 11.4867 10.711 11.046 10.8511C10.7932 10.9315 10.5371 10.9407 10.2798 10.95C10.2336 10.9517 10.1874 10.9533 10.1412 10.9554C9.95361 10.964 9.766 10.9723 9.57838 10.9807C9.09198 11.0023 8.60551 11.024 8.11919 11.0491C8.00231 11.0553 7.97677 11.0174 7.97831 10.9046C7.98669 10.3371 7.99273 9.76969 7.99878 9.20228C8.00427 8.68627 8.00977 8.17029 8.01702 7.65438C8.02424 7.1258 8.04024 6.59722 8.05727 6.06889C8.07135 5.62953 8.08623 5.19017 8.10111 4.7508L8.10111 4.75079C8.12304 4.10332 8.14497 3.45584 8.16434 2.80837C8.16769 2.69507 8.1922 2.65481 8.31502 2.65532C9.42446 2.66023 10.5339 2.65919 11.6433 2.65739C12.0967 2.65661 12.5407 2.7121 12.9793 2.82954C13.6003 2.99575 14.1463 3.29333 14.6236 3.72255C15.2565 4.29139 15.7023 4.99418 16.0512 5.75866C16.2107 6.1083 16.3476 6.46821 16.4845 6.82799C16.5306 6.94891 16.5766 7.06982 16.6234 7.19032C16.6482 7.25433 16.6647 7.28375 16.74 7.25949C17.005 7.17406 17.2715 7.09276 17.5391 7.01481C17.61 6.99417 17.6322 6.95726 17.6289 6.88628C17.6191 6.68471 17.6129 6.48262 17.6085 6.28079L17.6007 5.92389C17.5881 5.35548 17.5756 4.78691 17.5664 4.21835C17.551 3.25952 17.5368 2.3007 17.529 1.34187C17.528 1.21902 17.4901 1.19321 17.375 1.19321C12.9327 1.19524 8.49039 1.19551 4.04808 1.19579L0.411428 1.19605C0.372164 1.19605 0.333013 1.19958 0.289964 1.20347H0.289958H0.289954C0.268226 1.20543 0.245506 1.20748 0.221276 1.20921C0.221276 1.2797 0.221958 1.34929 0.222633 1.41825C0.224234 1.58158 0.225799 1.74131 0.21818 1.90065C0.211729 2.03254 0.252237 2.07796 0.385885 2.08803C0.702462 2.11203 1.01956 2.1412 1.33252 2.19204C1.95871 2.29425 2.43654 2.61222 2.72964 3.18958C2.95849 3.64125 3.07743 4.12698 3.12646 4.62175C3.20592 5.42495 3.25623 6.23175 3.29442 7.0383C3.33183 7.82394 3.3517 8.61114 3.35608 9.39755C3.36279 10.567 3.35712 11.7369 3.34138 12.9064C3.32841 13.8784 3.30048 14.8501 3.27254 15.8219L3.27254 15.8219L3.2663 16.0394C3.26351 16.1369 3.26093 16.2343 3.25835 16.3318C3.23777 17.11 3.21719 17.8883 3.09085 18.6601C3.01525 19.1208 2.91179 19.5709 2.68758 19.9831C2.46337 20.3953 2.14009 20.698 1.67258 20.8113C1.5115 20.8505 1.34798 20.8796 1.18449 20.9087L1.18446 20.9087C1.09892 20.9239 1.01339 20.9392 0.92822 20.9558C0.765951 20.9877 0.603807 21.0207 0.439979 21.054L0.221534 21.0983C0.221534 21.1549 0.221358 21.2106 0.221185 21.2657V21.2658V21.2658V21.2658V21.2658C0.22063 21.4423 0.220095 21.6124 0.225404 21.7823C0.226436 21.8104 0.275974 21.8468 0.310547 21.861C0.333854 21.8706 0.362172 21.8686 0.390423 21.8666C0.402203 21.8657 0.413972 21.8649 0.425361 21.8649H11.1067C11.1196 21.8649 11.1325 21.8645 11.1454 21.8642H11.1455C11.1713 21.8636 11.1972 21.863 11.2228 21.8649C11.2966 21.8703 11.3219 21.8347 11.3211 21.765C11.3204 21.698 11.3205 21.631 11.3206 21.564C11.3208 21.4374 11.3211 21.3109 11.3157 21.1845C11.3144 21.1497 11.2677 21.0929 11.2344 21.0867C11.1502 21.071 11.0662 21.0545 10.982 21.0379C10.7125 20.9849 10.4427 20.9318 10.1704 20.9078C9.41904 20.8415 8.87696 20.4995 8.57277 19.7975C8.32534 19.2266 8.22342 18.6206 8.17466 18.0097C8.10835 17.183 8.07197 16.3537 8.04256 15.525C8.01839 14.8447 8.0062 14.1641 7.99402 13.4836L7.99401 13.4835L7.99401 13.4835L7.99401 13.4834C7.9898 13.2485 7.9856 13.0135 7.9809 12.7786C7.97809 12.6312 7.97886 12.4837 7.97964 12.3334V12.3334V12.3334V12.3334V12.3334C7.98001 12.2624 7.98038 12.1908 7.98038 12.1184L8.0284 12.1182C8.05652 12.118 8.07888 12.1178 8.10113 12.1187C8.29471 12.1258 8.48829 12.1325 8.68185 12.1392C9.16242 12.1557 9.64291 12.1722 10.1231 12.1969L10.1243 12.1969C10.4144 12.2119 10.711 12.2271 10.9901 12.2993C11.5902 12.4544 11.9942 12.8643 12.2842 13.398C12.5474 13.8827 12.6932 14.4067 12.7992 14.943C12.8191 15.0442 12.8632 15.0653 12.954 15.063C13.0991 15.0592 13.2444 15.0606 13.3897 15.062H13.3897H13.3897H13.3898H13.3898L13.5087 15.063L13.511 15.063C13.6852 15.064 13.6855 15.064 13.6855 14.886V8.3564ZM15.4621 14.5114C15.464 13.8006 15.5499 13.1014 15.7122 12.4141C15.8799 11.7033 16.1314 11.0227 16.4908 10.3811C16.8265 9.78202 17.2303 9.23872 17.72 8.7597C18.2344 8.25641 18.816 7.84759 19.4621 7.526C20.0302 7.24339 20.6249 7.04027 21.2421 6.90864C21.5432 6.84429 21.851 6.80902 22.1582 6.77383L22.1584 6.77381C22.2183 6.76694 22.2782 6.76008 22.3381 6.75301C23.1033 6.66216 23.8663 6.71119 24.6243 6.82785C25.7603 7.00284 26.8143 7.39102 27.7403 8.08633C28.4547 8.62265 29.0288 9.28389 29.4645 10.0657C29.7922 10.6536 30.0316 11.2741 30.2019 11.9255C30.3988 12.6781 30.5028 13.4426 30.5035 14.2174C30.504 14.7483 30.4775 15.2823 30.4156 15.8093C30.3294 16.5444 30.123 17.2523 29.8265 17.9335C29.5373 18.5986 29.1647 19.2115 28.6977 19.7646C28.3631 20.1608 27.9818 20.5108 27.5648 20.819C27.0803 21.1769 26.5563 21.4663 25.9951 21.6875C25.4587 21.8988 24.9058 22.0483 24.3366 22.1407C23.7282 22.2395 23.1149 22.2803 22.5006 22.2537C21.8187 22.224 21.1438 22.1402 20.4807 21.9564C19.6272 21.72 18.8428 21.3512 18.1457 20.8061C17.5685 20.3546 17.0879 19.8152 16.698 19.1912C16.3525 18.6383 16.0891 18.0509 15.8964 17.4307C15.7356 16.9135 15.6198 16.3849 15.5646 15.846C15.5336 15.5416 15.5127 15.2362 15.4918 14.9308L15.4918 14.9307L15.4918 14.9307L15.4918 14.9307L15.4918 14.9306L15.4918 14.9306L15.4918 14.9305C15.4822 14.7908 15.4727 14.651 15.4621 14.5114ZM25.9303 14.3088C25.9217 14.1738 25.9124 14.0373 25.903 13.8999C25.8825 13.5986 25.8617 13.2924 25.8465 12.986C25.8116 12.2806 25.7061 11.5848 25.5423 10.9001C25.3459 10.0796 25.0802 9.28492 24.5567 8.60149C24.22 8.16195 23.8072 7.83649 23.255 7.72396C22.5672 7.58381 21.9573 7.75467 21.4526 8.24144C21.0847 8.59632 20.8625 9.04928 20.6899 9.52392C20.5075 10.0251 20.3922 10.5439 20.3075 11.0704C20.1909 11.7972 20.1267 12.5287 20.1073 13.2635C20.0921 13.8388 20.0921 14.4146 20.0949 14.9901C20.0991 15.8336 20.1791 16.6711 20.3284 17.5011C20.4433 18.1389 20.603 18.7643 20.8525 19.3659C21.0227 19.777 21.2271 20.1662 21.5114 20.5074C22.1234 21.2415 22.875 21.4614 23.7705 21.1767C24.3229 21.0012 24.7009 20.5978 24.9819 20.1043C25.3962 19.3762 25.5864 18.5751 25.7041 17.7569C25.7789 17.2348 25.8274 16.7075 25.8604 16.1807C25.8871 15.7519 25.8996 15.3221 25.9123 14.8867L25.9123 14.8863C25.9179 14.695 25.9235 14.5026 25.9303 14.3088ZM72.7298 19.149C72.7001 19.1134 72.6703 19.0776 72.6405 19.0415C72.5667 19.0887 72.4943 19.1353 72.4228 19.1813C72.3153 19.2504 72.2097 19.3184 72.1036 19.3858C71.5252 19.751 70.8969 19.9825 70.2171 20.0558C69.7614 20.1048 69.3055 20.1237 68.8437 20.094C68.1349 20.0483 67.461 19.8883 66.8289 19.5726C65.8647 19.0913 65.1861 18.3294 64.7253 17.3633C64.4761 16.8412 64.3146 16.2915 64.208 15.7252C64.0929 15.1151 64.0571 14.498 64.0715 13.8775C64.0731 13.8016 64.1017 13.7817 64.1716 13.7841C64.2571 13.787 64.3426 13.7864 64.4282 13.7858C64.4631 13.7856 64.498 13.7854 64.5329 13.7854H73.0456C73.2143 13.7854 73.2143 13.7849 73.2146 13.6334L73.2146 13.6181C73.2164 12.9974 73.1522 12.3842 73.0363 11.7745C72.9115 11.1182 72.7187 10.4846 72.4285 9.88295C72.155 9.31592 71.8064 8.80153 71.3662 8.34625C70.8786 7.84193 70.3115 7.45685 69.6709 7.1874C69.1685 6.97628 68.6396 6.8524 68.0962 6.77781C67.3609 6.67689 66.63 6.70012 65.9 6.79897C65.3053 6.8795 64.7194 7.00803 64.166 7.24935L64.137 7.26196C63.8331 7.39456 63.5277 7.52776 63.2382 7.68837C62.508 8.09332 61.8852 8.62964 61.3549 9.27643C60.9731 9.74203 60.6428 10.243 60.3967 10.7891C60.1967 11.2328 60.0435 11.6994 59.8936 12.1637C59.6851 12.809 59.6082 13.4811 59.5693 14.1542C59.5213 14.9816 59.6046 15.8019 59.7906 16.6102C59.9599 17.3458 60.2272 18.045 60.607 18.6972C61.0262 19.4175 61.551 20.0493 62.1994 20.5805C62.9533 21.1984 63.7965 21.6387 64.7264 21.9182C65.3541 22.1069 65.9968 22.2086 66.6509 22.2452C67.284 22.2806 67.9123 22.2411 68.5372 22.1355C69.0506 22.0488 69.5499 21.9061 70.0334 21.7182C70.5169 21.5303 70.98 21.2952 71.4127 21.0064C72.0074 20.6097 72.5443 20.149 72.9716 19.5706C72.9904 19.545 73.0046 19.489 72.9904 19.4707C72.9069 19.362 72.819 19.2563 72.73 19.1493L72.7299 19.1493L72.7298 19.149ZM68.7039 12.5665C68.7018 12.5872 68.6995 12.6092 68.6976 12.6332C68.6438 12.6332 68.5911 12.6329 68.5391 12.6327H68.5391C68.4322 12.6321 68.3286 12.6316 68.225 12.6335C67.0048 12.6562 65.7847 12.6797 64.5646 12.7042C64.4356 12.7068 64.3068 12.7148 64.1781 12.7233C64.102 12.7285 64.0633 12.7034 64.0733 12.6213C64.0904 12.4823 64.1061 12.343 64.1219 12.2038L64.1219 12.2035L64.122 12.2031L64.122 12.2029C64.1573 11.8908 64.1927 11.5787 64.2421 11.2687C64.2939 10.9435 64.3711 10.6208 64.4601 10.3036C64.6381 9.66899 64.8837 9.06195 65.2806 8.52769C65.6075 8.08764 66.012 7.75289 66.5768 7.6863C67.0443 7.63133 67.4344 7.80038 67.744 8.15655C68.0108 8.46343 68.1752 8.82554 68.2964 9.20623C68.5284 9.93431 68.6401 10.6846 68.6718 11.4473C68.6858 11.7823 68.6992 12.117 68.7108 12.452C68.712 12.4883 68.7083 12.5246 68.7039 12.5664V12.5664V12.5665ZM84.9668 8.72765L84.9803 9.3821C84.9907 9.88827 85.0004 10.3558 85.0104 10.8231C85.0132 10.9519 85.0171 11.0807 85.0251 11.2092C85.03 11.2882 85.0109 11.3318 84.9229 11.3533C84.8386 11.3737 84.7558 11.4001 84.6729 11.4265L84.6728 11.4266C84.5965 11.4509 84.5201 11.4753 84.4425 11.495C84.4126 11.5024 84.3455 11.4655 84.3354 11.4356C84.1161 10.7929 83.854 10.1689 83.5039 9.58608C83.1063 8.92432 82.6045 8.36064 81.8795 8.0517C81.6075 7.93582 81.3085 7.86252 81.0149 7.82432C80.721 7.78612 80.4132 7.78096 80.1201 7.82277C79.4158 7.92317 78.9232 8.33483 78.6356 8.97568C78.3948 9.51201 78.3636 10.0757 78.5486 10.6355C78.6701 11.0033 78.9323 11.28 79.2253 11.5244C79.5695 11.8114 79.9563 12.0333 80.3593 12.2225C80.8823 12.4679 81.4125 12.6983 81.9423 12.9284L81.9909 12.9496C82.1452 13.0166 82.3014 13.0792 82.4577 13.1418L82.4579 13.1419C82.7028 13.24 82.9475 13.3381 83.1842 13.4531C83.8922 13.7972 84.5522 14.2173 85.0532 14.8404C85.4921 15.3863 85.7181 16.0199 85.7927 16.7155C85.8512 17.26 85.8234 17.8002 85.7065 18.3298C85.537 19.099 85.1964 19.7873 84.6592 20.3747C84.1866 20.8917 83.6241 21.2768 82.9938 21.572C82.3511 21.873 81.6744 22.0542 80.9746 22.1538C80.2582 22.2557 79.5381 22.2908 78.8156 22.2315C78.7134 22.2231 78.6112 22.215 78.5089 22.2069L78.5088 22.2069C78.072 22.1724 77.635 22.1378 77.201 22.0807C76.7382 22.0198 76.2761 21.936 75.8228 21.8257C75.5019 21.7478 75.1862 21.6489 74.8705 21.55C74.7245 21.5043 74.5784 21.4585 74.4318 21.4149C74.3441 21.3888 74.3232 21.3351 74.3214 21.2443C74.2999 20.1596 74.2739 19.075 74.248 17.9906L74.2478 17.9833L74.2437 17.8152C74.2386 17.5966 74.2311 17.378 74.2216 17.1594C74.2182 17.0835 74.2388 17.0445 74.3217 17.0267C74.4677 16.9955 74.6119 16.9526 74.7536 16.9044C74.8599 16.8682 74.9084 16.8876 74.9515 17.0022C75.2188 17.7133 75.5328 18.4026 75.9561 19.037C76.265 19.4998 76.6295 19.9146 77.0811 20.2418C77.7596 20.734 78.5316 20.9273 79.36 20.8979C80.0009 20.8752 80.5809 20.6788 81.0482 20.2188C81.4022 19.8704 81.606 19.4474 81.6785 18.9529C81.727 18.6225 81.7076 18.3004 81.6176 17.9845C81.4736 17.4792 81.1209 17.1351 80.6981 16.8525C80.0915 16.4473 79.4178 16.1846 78.7416 15.9247C78.6141 15.8757 78.4862 15.8275 78.3583 15.7793C77.8686 15.5947 77.3783 15.41 76.9103 15.1808C76.17 14.8185 75.5191 14.3247 75.0792 13.601C74.8839 13.2799 74.7407 12.9367 74.6509 12.571C74.4974 11.9448 74.4796 11.3107 74.5851 10.6789C74.6506 10.2863 74.7848 9.90947 74.9659 9.54969C75.2662 8.95245 75.6845 8.45304 76.2025 8.03802C76.605 7.7154 77.0424 7.44388 77.5287 7.26477L77.5791 7.24617C77.916 7.12185 78.2548 6.9968 78.6023 6.91272C78.8961 6.84156 79.1993 6.80632 79.5014 6.7712C79.5533 6.76518 79.605 6.75916 79.6567 6.75296C80.3606 6.66831 81.0629 6.72122 81.7659 6.77929C82.5 6.83968 83.2216 6.96408 83.9301 7.16075C84.1985 7.23528 84.4614 7.3305 84.7238 7.42553L84.7239 7.42558L84.8417 7.46815C84.8796 7.48182 84.9219 7.54506 84.924 7.58739C84.9399 7.91695 84.9508 8.24667 84.9599 8.52199L84.9599 8.5235L84.9668 8.72765ZM37.1117 10.0417C37.1419 8.94032 37.172 7.83875 37.203 6.71665C37.067 6.74376 36.934 6.7704 36.8032 6.79664C36.5166 6.85408 36.24 6.90953 35.9635 6.96339C35.7189 7.01075 35.4742 7.05704 35.2294 7.10333C34.9352 7.15897 34.6411 7.2146 34.3473 7.27207C33.9959 7.34085 33.6447 7.41092 33.2935 7.48099C32.9423 7.55107 32.5911 7.62115 32.2396 7.68993C31.745 7.7866 31.2493 7.87949 30.7539 7.97234L30.7362 7.97564C30.6684 7.98829 30.6279 8.01281 30.6307 8.09127C30.6351 8.21593 30.6356 8.34085 30.6312 8.46525C30.6284 8.54087 30.6578 8.57107 30.7321 8.58036C30.8475 8.59479 30.9626 8.61166 31.0777 8.62852C31.1746 8.64272 31.2715 8.65692 31.3686 8.66966C31.8438 8.73186 32.2291 8.93318 32.4424 9.3833C32.589 9.69275 32.6579 10.0262 32.6829 10.3659C32.6886 10.4438 32.6945 10.5218 32.7003 10.5998C32.7341 11.0488 32.7678 11.4983 32.7771 11.948C32.798 12.9791 32.8114 14.011 32.8021 15.042C32.7932 16.0106 32.7675 16.9792 32.7418 17.9477C32.736 18.1651 32.7303 18.3825 32.7247 18.5999C32.7108 19.146 32.6842 19.6924 32.4556 20.2027C32.2469 20.6685 31.8797 20.9209 31.3784 20.9893C31.2126 21.0119 31.0472 21.0369 30.8807 21.062C30.801 21.0741 30.7211 21.0861 30.6408 21.098V21.8653H30.827L39.5852 21.8656C39.5957 21.8656 39.6063 21.8661 39.617 21.8665C39.6457 21.8678 39.6745 21.8691 39.7005 21.8612C39.7263 21.8534 39.7629 21.8222 39.7634 21.8011C39.7669 21.6149 39.7667 21.4288 39.7664 21.2436C39.7663 21.1953 39.7663 21.1471 39.7663 21.099C39.6574 21.0897 39.5506 21.0801 39.4451 21.0706C39.207 21.0492 38.9759 21.0285 38.7446 21.0126C38.4236 20.9904 38.1124 20.9385 37.842 20.7506C37.5038 20.5155 37.3573 20.1575 37.3002 19.7763C37.2177 19.2258 37.1537 18.6693 37.1289 18.1134C37.0827 17.0828 37.052 16.0507 37.0497 15.0193C37.0473 14.0346 37.0659 13.0499 37.0844 12.0652C37.0897 11.786 37.095 11.5068 37.0998 11.2276C37.1008 11.1675 37.1367 11.0955 37.179 11.0503C37.4555 10.7546 37.8175 10.6116 38.1966 10.5073C38.7164 10.3641 39.2464 10.3432 39.7802 10.4046C40.209 10.4539 40.6236 10.5618 41.0168 10.7398C41.1825 10.8149 41.3444 10.898 41.5082 10.9821C41.5821 11.0201 41.6565 11.0583 41.7318 11.096C41.7356 11.0907 41.7398 11.0855 41.744 11.0803C41.753 11.0692 41.762 11.0581 41.7669 11.0454C41.8767 10.7644 41.9862 10.4831 42.0957 10.2018C42.1758 9.99615 42.2558 9.79047 42.3361 9.58487C42.4809 9.21346 42.6261 8.84217 42.7714 8.47084C42.8305 8.31964 42.8897 8.16843 42.9488 8.0172C42.9816 7.93331 43.0147 7.84953 43.0477 7.76575C43.1168 7.59049 43.1859 7.41523 43.2528 7.23904C43.2814 7.16341 43.3018 7.09967 43.1926 7.04185C42.4697 6.65935 41.7001 6.59612 40.9136 6.7262C40.4263 6.80673 39.9686 6.99488 39.5408 7.25143C38.6223 7.8022 37.962 8.59043 37.4476 9.51363C37.3767 9.64073 37.3105 9.7705 37.2444 9.90027C37.214 9.95997 37.1835 10.0197 37.1526 10.0791L37.1109 10.0724L37.1117 10.0417Z"/>
</svg>
