<svg width="32" height="32" viewBox="0 0 32 32" fill="none" xmlns="http://www.w3.org/2000/svg">
<g clip-path="url(#clip0)">
<path d="M28.3333 32H3.66675C1.64404 32 0 30.356 0 28.3333V3.66675C0 1.64404 1.64404 0 3.66675 0H28.3333C30.356 0 32 1.64404 32 3.66675V28.3333C32 30.356 30.356 32 28.3333 32ZM3.66675 2C2.74805 2 2 2.74805 2 3.66675V28.3333C2 29.252 2.74805 30 3.66675 30H28.3333C29.252 30 30 29.252 30 28.3333V3.66675C30 2.74805 29.252 2 28.3333 2H3.66675Z" fill="black"/>
<path d="M21.6667 11.3333H10.3333C9.78125 11.3333 9.33325 10.8853 9.33325 10.3333C9.33325 9.78125 9.78125 9.33325 10.3333 9.33325H21.6667C22.2188 9.33325 22.6667 9.78125 22.6667 10.3333C22.6667 10.8853 22.2188 11.3333 21.6667 11.3333Z" fill="#0ED193"/>
<path d="M21.6667 17H10.3333C9.78125 17 9.33325 16.552 9.33325 16C9.33325 15.448 9.78125 15 10.3333 15H21.6667C22.2188 15 22.6667 15.448 22.6667 16C22.6667 16.552 22.2188 17 21.6667 17Z" fill="#0ED193"/>
<path d="M21.6667 22.6667H10.3333C9.78125 22.6667 9.33325 22.2188 9.33325 21.6667C9.33325 21.1147 9.78125 20.6667 10.3333 20.6667H21.6667C22.2188 20.6667 22.6667 21.1147 22.6667 21.6667C22.6667 22.2188 22.2188 22.6667 21.6667 22.6667Z" fill="#0ED193"/>
</g>
<defs>
<clipPath id="clip0">
<rect width="32" height="32" fill="white"/>
</clipPath>
</defs>
</svg>
