<svg width="128" height="17" viewBox="0 0 128 17" xmlns="http://www.w3.org/2000/svg">
<path fill-rule="evenodd" clip-rule="evenodd" d="M127.311 2.18733C127.311 1.59582 126.985 1.08033 126.502 0.811647C126.509 0.851368 126.508 0.900116 126.486 0.964497C126.453 1.06253 126.396 1.15767 126.364 1.20889C126.28 1.34352 126.198 1.462 126.1 1.58641C126.014 1.69343 125.917 1.78858 125.818 1.88393C125.734 1.96595 125.649 2.04813 125.572 2.13815C125.316 2.43667 125.171 2.8977 125.25 3.28694C125.271 3.38638 125.318 3.51229 125.413 3.56491C125.977 3.87818 126.391 2.53471 126.2 2.13815C126.173 2.08692 126.121 1.9947 126.05 2.00793C125.696 2.07379 125.533 3.22399 125.753 3.30739C125.743 3.44352 125.527 3.52692 125.464 3.27521C125.443 3.1874 125.439 3.09517 125.442 3.00445C125.453 2.62102 125.759 2.04151 126.11 1.86448C126.27 1.78248 126.495 1.78399 126.584 1.96693C126.89 2.59926 126.097 3.75184 125.377 3.71754C125.494 3.74535 125.615 3.7601 125.739 3.76013C126.602 3.76045 127.311 3.0503 127.311 2.18733ZM126.337 0.824777C126.362 0.799862 126.386 0.776423 126.404 0.761694C126.202 0.667005 125.977 0.614098 125.739 0.614098C124.876 0.614205 124.166 1.32447 124.166 2.18722C124.166 2.81259 124.539 3.35757 125.073 3.61028C124.9 3.47382 124.836 3.22863 124.857 2.99272C124.879 2.72648 124.99 2.47326 125.144 2.25663C125.307 2.02678 125.52 1.88272 125.72 1.74771C125.899 1.6266 126.067 1.51277 126.179 1.35084C126.179 1.35084 126.188 1.33771 126.19 1.33039C126.194 1.31963 126.181 1.30693 126.165 1.31963C126.139 1.34309 126.003 1.41336 125.908 1.42498C125.716 1.44694 125.612 1.185 125.58 1.04015L125.578 1.0324C125.572 1.00433 125.568 0.986473 125.54 1.02401C125.497 1.08085 125.458 1.25971 125.419 1.43788C125.375 1.64055 125.331 1.84233 125.28 1.86255L124.908 2.01041C124.908 2.01041 124.892 2.01794 124.886 1.99577C124.853 1.8703 125.087 1.49872 125.239 1.25853L125.239 1.25843C125.278 1.19605 125.312 1.14253 125.334 1.1045C125.339 1.09707 125.351 1.07463 125.366 1.04708L125.366 1.04692C125.397 0.987972 125.442 0.905712 125.453 0.896699C125.48 0.873346 125.65 0.829439 125.685 0.83525L125.685 0.835681C125.733 1.28648 126.096 1.03036 126.252 0.904448C126.279 0.88297 126.309 0.852932 126.337 0.824777ZM123.9 2.18722C123.9 1.17768 124.729 0.347534 125.739 0.347534C126.753 0.347534 127.577 1.17219 127.578 2.18679C127.578 3.19612 126.748 4.02637 125.739 4.0267C124.73 4.02702 123.9 3.19676 123.9 2.18722ZM9.28934 13.7388H14.4068L9.11786 5.53805L13.8221 0.659946H8.8048L5.13678 4.88116V0.659946H0.858887V13.7388H5.13678V9.6002L6.15512 8.5403L9.28934 13.7388ZM19.7134 7.26613C19.9943 7.74642 20.1346 8.28869 20.1346 8.88671C20.1346 9.55296 20.0126 10.1603 19.7684 10.7087C19.5242 11.2572 19.1183 11.5299 18.5505 11.5299C17.9614 11.5299 17.5219 11.2479 17.2382 10.684C16.9511 10.1231 16.8077 9.52197 16.8077 8.88671C16.8077 8.29494 16.942 7.75568 17.2106 7.26925C17.4792 6.78585 17.879 6.54414 18.4071 6.54414C18.9992 6.54414 19.4327 6.78585 19.7134 7.26613ZM18.5663 14.0345C20.3583 14.0345 22.0908 13.3328 23.1017 11.8334C23.9119 10.6313 24.0729 8.66061 23.6219 7.26108C23.2089 5.97927 22.2604 4.90096 20.9854 4.37688C19.6219 3.81426 18.0848 3.72903 16.6646 4.12333C15.3753 4.46824 14.2508 5.31711 13.6373 6.49152C12.8398 8.0175 12.9609 10.3495 13.9076 11.7797C14.9397 13.3388 16.7196 14.0345 18.5663 14.0345ZM55.5958 6.63206C55.8993 6.87269 56.1195 7.30444 56.2533 7.92732H52.7307C52.8706 7.29035 53.0729 6.85504 53.3407 6.62141C53.6084 6.38444 53.9714 6.26757 54.4296 6.26757C54.9026 6.26757 55.2894 6.38788 55.5958 6.63206ZM52.7677 9.77443H59.9128C59.9573 9.05384 59.8877 8.37909 59.7045 7.67486C59.3333 6.27489 58.4403 5.1657 57.131 4.51505C55.6555 3.77907 53.5189 3.73646 51.9929 4.36493C50.7381 4.88396 49.7704 5.86272 49.3004 7.12828C48.8473 8.34821 48.8537 9.6906 49.3212 10.9008C49.8302 12.1425 50.7649 13.1047 52.0167 13.6251C53.0927 14.0745 54.4369 14.1134 55.5988 13.9706C56.5047 13.8672 57.4222 13.5742 58.1694 13.0484C58.91 12.5256 59.4853 11.73 59.6242 10.8283H55.9648C55.839 11.4638 55.1645 11.6993 54.5796 11.6993C53.7832 11.6993 53.2269 11.2371 52.9194 10.5524C52.8183 10.3273 52.7677 10.0689 52.7677 9.77443ZM66.596 14.0295C68.161 14.0295 69.4594 13.1922 70.1624 11.8516C70.8232 10.6013 70.947 8.683 70.59 7.28346C70.2081 5.7777 69.1354 4.438 67.5425 4.04058C66.0806 3.67242 64.2685 4.20265 63.5363 5.66202V4.24106H60.161V16.9852H63.973V12.8842C64.7326 13.6641 65.472 14.0295 66.596 14.0295ZM66.6536 7.43681C66.924 7.91043 67.0575 8.35014 67.0575 8.75295C67.0575 9.28683 66.9302 9.82555 66.7296 10.3182C66.508 10.8286 66.095 11.0839 65.4816 11.0839C64.8531 11.0839 64.4339 10.8379 64.2185 10.3459C64.0059 9.85385 63.8996 9.32191 63.8996 8.75295C63.8996 8.28859 64.0362 7.8366 64.3096 7.39376C64.5828 6.94791 64.9745 6.72655 65.4816 6.72655C65.9917 6.72655 66.3834 6.9633 66.6536 7.43681ZM74.0174 13.6142C75.4921 14.228 77.5054 14.1484 78.9866 13.6294C80.6493 13.0468 81.6018 11.6532 81.6412 10.0596H77.8718L77.8698 10.0658C77.6221 10.8599 77.4232 11.4978 76.4738 11.4978C75.8024 11.4978 75.1112 10.9581 74.9012 10.3215C74.5827 9.35581 74.666 8.05442 75.1695 7.17337C75.5642 6.48291 76.8008 6.14101 77.3471 6.84073C77.54 7.0876 77.672 7.37698 77.7406 7.84511H81.6412C81.4519 6.32321 80.7308 5.29053 79.3534 4.54067C77.908 3.75389 75.6469 3.73129 74.1247 4.35223C72.7946 4.89472 71.8733 5.67784 71.3405 7.04262C71.1106 7.64957 70.9738 8.28881 70.9738 8.93934C70.9738 9.91606 71.2378 10.8756 71.7459 11.7084C72.2657 12.5756 73.0888 13.2277 74.0174 13.6142ZM88.5466 9.57158C88.5786 9.6821 88.5945 9.82727 88.5945 10.0041C88.5945 10.5913 88.3744 11.09 87.9405 11.5037C87.4846 11.9609 86.5753 11.9878 86.0331 11.6615C85.5644 11.3544 85.5355 10.5944 86.0714 10.3293C86.4494 10.1221 86.899 10.0277 87.3217 9.95038C87.8768 9.84309 88.2851 9.71675 88.5466 9.57158ZM88.9337 13.7388H92.8356V13.444C92.4532 13.1948 92.2605 12.8118 92.2605 12.295V7.27366C92.1982 6.53198 92.0643 5.9274 91.8662 5.46207C91.667 4.99426 91.24 4.74341 90.5855 4.43208C89.9297 4.12032 88.946 3.96406 87.6327 3.96406C87.0931 3.96406 86.607 3.98365 86.1682 4.01873C85.7325 4.05349 85.3492 4.10041 85.0268 4.16767C84.359 4.30703 83.8379 4.51731 83.4585 4.78775C83.079 5.05829 82.8015 5.38405 82.6254 5.76339C82.5119 6.00792 82.4804 6.24551 82.4402 6.54944C82.4178 6.71848 82.3927 6.90805 82.3492 7.13075H85.9636C86.0347 6.78735 86.1859 6.5563 86.4201 6.44083C86.6543 6.32536 87.1371 6.26757 87.5255 6.26757C87.8486 6.26757 88.0977 6.32837 88.2725 6.44998C88.4475 6.57148 88.5334 6.72041 88.5334 6.89981C88.5334 6.91472 88.5336 6.92958 88.5338 6.94441C88.5353 7.05952 88.5369 7.17206 88.445 7.27969C88.3412 7.4013 88.1308 7.59414 87.9524 7.65323C87.7051 7.73501 87.1915 7.811 86.6249 7.89482C86.5272 7.90927 86.428 7.92396 86.3283 7.93894L84.7303 8.17903C84.5476 8.20648 84.3557 8.26171 84.1532 8.31995L84.1462 8.32195C83.9392 8.38146 83.7282 8.4527 83.5147 8.5347C83.0642 8.70786 82.8144 8.87348 82.5593 9.16823C82.1119 9.685 81.7864 10.2615 81.7864 10.9607C81.7864 11.5138 81.9138 12.0549 82.1688 12.5899C82.4535 13.0762 82.8655 13.4379 83.411 13.6689C83.9565 13.9 84.5584 14.0154 85.2165 14.0154C85.5811 14.0154 85.931 13.985 86.2601 13.9272C86.5891 13.8665 86.9107 13.7712 87.2235 13.6506C87.8653 13.4034 88.5008 13.1005 88.7855 12.7328L88.9337 13.7388ZM99.6746 13.7388H103.439L103.435 13.5686L103.439 4.24623H99.6326V7.42691H96.8869V4.24623H93.1592L93.1556 4.38914L93.1592 13.7388H96.8869V10.1891H99.6746V13.7388ZM110.656 7.04391H113.897V4.24623H103.612V7.04391H106.881V13.7388H110.656V7.04391ZM125.088 12.7899C125.726 12.2675 126.123 11.5349 126.123 10.7011C126.123 9.83168 125.685 9.06751 125.026 8.52114C124.149 7.79431 122.923 7.57789 121.817 7.57789H119.829V4.24623H114.02V7.04391H116.197V13.7388H122.023C123.089 13.7388 124.249 13.4843 125.088 12.7899ZM121.469 9.79111C122.039 9.85945 122.371 10.1111 122.371 10.7108C122.371 11.3784 121.986 11.536 121.407 11.579C121.243 11.5918 121.031 11.6026 120.773 11.5972L119.829 11.579V9.74569C119.991 9.74569 120.445 9.75173 120.785 9.7669C121.124 9.78143 121.353 9.79111 121.469 9.79111ZM29.345 13.7387H31.1745L33.1735 7.39742L32.8648 9.88291V13.7387H36.2031V4.19145H31.9218L30.2598 9.46515L28.5978 4.19145H24.3165V13.7387H27.6547V9.88291L27.346 7.39742L29.345 13.7387ZM41.8462 13.7387H43.6757L45.6747 7.39742L45.3659 9.88291V13.7387H48.7041V4.19145H44.4229L42.7609 9.46515L41.0989 4.19145H36.8176V13.7387H40.1559V9.88291L39.8471 7.39742L41.8462 13.7387Z"/>
</svg>
