<svg width="78" height="22" viewBox="0 0 78 22" xmlns="http://www.w3.org/2000/svg">
<path fill-rule="evenodd" clip-rule="evenodd" d="M0.324951 0.631226V19.8539L19.5412 0.631226H0.324951ZM1.69755 21.227H20.9138V2.00429L1.69755 21.227ZM35.1299 7.34308C35.1299 9.38812 33.9421 10.4826 31.7078 10.4826H29.3886V4.17437H31.7078C33.8854 4.17437 35.1299 5.03847 35.1299 7.22753V7.34308ZM31.8209 0.631226H24.8354V21.227H29.3886V13.7378H31.9621C36.5723 13.7378 39.5418 11.6636 39.5418 7.31394V7.19906C39.5418 2.84909 36.7418 0.631226 31.8209 0.631226ZM48.6061 17.6838C50.7982 17.6838 51.9082 16.7045 51.9082 14.832V14.7171C51.9082 12.8733 50.7982 11.8652 48.4951 11.8652H45.9422V17.6838H48.6061ZM48.7726 21.227H41.5026V0.631226H54.4332V4.26078H45.9702L45.9422 8.58129H48.9112C53.4897 8.58129 56.2089 10.6267 56.2089 14.7455V14.8611C56.2089 18.8936 53.684 21.227 48.7726 21.227ZM64.2987 0.659988H59.5178V21.227H64.2987V11.9933L71.5877 21.227H77.1654L68.4006 10.3826L76.7523 0.631226H71.6763L64.2987 9.5197V0.659988Z"/>
</svg>
