<svg width="107" height="25" viewBox="0 0 107 25" xmlns="http://www.w3.org/2000/svg">
<path d="M106.259 18.5713C106.259 18.5713 105.856 19.0136 105.318 19.3239C104.331 19.8996 103.3 20.2091 102.18 20.3418C101.821 20.386 101.507 20.386 101.149 20.386C96.8901 20.386 94.6937 17.7311 94.6937 14.1018C94.6937 9.01232 98.9522 7.81753 101.731 7.81753C102.538 7.81753 103.344 7.95021 104.151 8.30399C105.362 8.83543 106.124 9.94101 106.124 11.0923C106.124 12.2436 105.451 13.0839 104.151 13.0839C103.389 13.0839 102.852 12.7743 102.583 12.1544C102.448 11.8449 102.448 11.5346 102.404 11.225C102.359 10.9154 102.359 10.6051 102.224 10.2956C102.045 9.76412 101.552 9.45455 101.059 9.49878C100.701 9.49878 100.386 9.63145 100.118 9.94101C99.7592 10.339 99.6249 10.8705 99.6249 11.4011C99.5353 13.1274 99.7145 14.8528 100.611 16.4021C101.329 17.6854 102.584 18.4379 103.883 18.4379C104.242 18.4379 104.646 18.3937 105.004 18.261C105.407 18.1284 105.766 17.9515 106.125 17.7296L106.259 18.5706V18.5713ZM29.2493 17.5977C29.2493 17.5977 29.3837 18.306 29.4285 18.4387C29.3837 18.5271 29.1149 18.7482 29.0701 18.7925C27.9943 19.6335 25.7531 20.341 24.4085 20.341C20.15 20.341 17.5952 18.1284 17.5952 14.0568C17.5952 10.0295 20.8675 7.81678 24.0502 7.81678C26.8297 7.81678 29.1605 9.23269 29.1605 12.4633C29.1605 12.7286 29.1605 12.7286 29.1605 12.9055L23.0191 15.3835L23.1983 15.7815C23.5119 16.4898 23.9158 17.1532 24.6325 17.6846C25.7531 18.5256 27.5016 18.5698 28.891 17.8173C28.9806 17.7731 29.0701 17.6846 29.2493 17.5962V17.5977ZM22.66 14.1902C23.0632 14.0133 24.1838 13.5261 24.2734 13.4819C24.7213 13.2608 24.9012 13.0839 24.946 12.7293C24.9908 12.4198 24.946 11.4903 24.946 11.2692C24.8565 10.1187 24.4533 9.49878 23.915 9.49878C22.436 9.49878 22.1665 11.4903 22.66 14.1895V14.1902ZM90.7495 6.13629C92.2285 6.13629 93.3939 4.98573 93.3939 3.5256C93.3939 2.06548 92.1837 0.914917 90.7495 0.914917C89.2706 0.914917 88.1052 2.06548 88.1052 3.5256C88.1052 4.98573 89.2706 6.13629 90.7495 6.13629ZM18.4015 19.0143V19.8996H11.9018C10.6468 17.7311 9.5262 15.6953 8.2712 13.5711C8.2264 13.5711 8.13681 13.5269 8.09202 13.5269C8.09202 14.8543 8.09202 16.7132 8.09202 17.3773C8.09202 18.5721 8.49517 19.0143 9.70537 19.0143C9.75017 19.0143 9.83976 19.0143 9.88455 19.0143V19.8996H0.785246V19.0586C1.09881 19.0143 1.36833 19.0143 1.68189 18.9701C2.21942 18.8374 2.57853 18.4387 2.62333 17.8638C2.62333 17.7311 2.62333 8.57008 2.62333 7.59717C2.62333 7.33183 2.53374 7.11071 2.35456 6.93306C1.90662 6.49083 1.14436 5.73828 0.741211 5.34027C0.875594 5.29604 1.00998 5.25182 1.14436 5.16337L7.77846 2.46424V4.4558C7.77846 4.4558 8.00243 4.01356 8.45113 3.57058C9.03422 3.03989 9.9749 2.64113 11.1851 2.64113C12.8432 2.64113 14.4574 3.52635 15.3092 4.80959C15.9819 5.82748 16.3402 6.97804 16.3402 8.1286C16.3402 12.0233 12.9336 13.7045 10.0645 13.7045C9.9749 13.7045 9.88531 13.7045 9.79572 13.7045L9.75093 13.8372C10.558 14.1025 11.5442 14.191 12.3505 14.191C13.1128 14.191 13.9191 14.1025 14.4126 14.0141L16.7882 18.2183C17.2809 19.1035 18.1776 19.0151 18.4015 19.0151V19.0143ZM7.95764 8.43741C7.95764 10.5616 7.95764 12.2429 9.34702 12.2429C10.7364 12.2429 10.7364 10.5167 10.7364 8.43666C10.7364 6.31244 10.602 4.63119 9.34702 4.63119C8.09202 4.63119 7.95764 6.31319 7.95764 8.43666V8.43741ZM85.1905 18.9701C84.5178 18.9259 84.1595 18.5721 84.1595 17.9522C84.1595 17.8195 84.1595 17.6427 84.1595 17.51V2.1097L77.3014 4.89803C77.3014 4.89803 78.1085 5.73903 78.5564 6.13704C78.6908 6.26971 78.7804 6.44661 78.8252 6.66772C78.8252 10.1194 78.8252 14.1467 78.8252 17.5542C78.8252 17.6869 78.8252 17.8638 78.7804 17.9964C78.6908 18.6163 78.3772 18.8817 77.7493 18.9259C77.5702 18.9259 77.391 18.9259 77.211 18.9259V19.8111H85.728V18.9259C85.5489 18.9701 85.3697 18.9701 85.1897 18.9701H85.1905ZM93.9762 18.9701C93.3484 18.9259 92.99 18.5721 92.9452 17.9522C92.9452 17.8195 92.9452 13.2173 92.9452 13.2173V7.68561L86.1319 10.4739C86.1319 10.4739 86.939 11.3149 87.3869 11.713C87.5661 11.8898 87.6557 12.111 87.6557 12.4655C87.6557 12.4655 87.6557 17.6434 87.6557 17.7761C87.6557 18.6171 87.2526 19.0151 86.5799 19.0151C86.4007 19.0151 86.2215 19.0151 86.0416 19.0151V19.9003H94.5586V19.0151C94.3346 18.9709 94.1554 18.9709 93.9755 18.9709L93.9762 18.9701ZM61.0753 18.9701C60.3578 18.9259 59.9994 18.5721 59.9546 17.8638C59.9546 17.7311 59.9546 7.64139 59.9546 7.64139L53.0966 10.4297C53.0966 10.4297 53.9036 11.2707 54.3516 11.6687C54.4859 11.8014 54.5755 11.9783 54.6203 12.2002C54.6203 13.0412 54.6203 15.9614 54.6203 16.5813C54.6203 17.2896 54.082 17.7761 53.3653 17.7761C52.7375 17.7761 52.1999 17.2896 52.1999 16.5813C52.1999 16.4044 52.1999 7.59792 52.1999 7.59792L45.3418 10.3862C45.3418 10.3862 46.1489 11.2272 46.5968 11.6253C46.776 11.8021 46.8656 12.0233 46.8656 12.2894C46.8656 12.3336 46.8656 16.8032 46.8656 16.8032C46.8656 18.5294 47.8966 19.8126 49.51 20.1222C49.9579 20.2106 50.3618 20.2548 50.765 20.2548C52.244 20.2548 53.499 19.6792 54.5748 18.4844C54.6196 18.396 54.7092 18.3517 54.754 18.2633C54.7987 18.2633 54.8435 18.3075 54.8435 18.3075V19.8119H61.4776V18.9266C61.3881 18.9709 61.2089 18.9709 61.0745 18.9709L61.0753 18.9701ZM43.9517 10.0302C44.6244 11.0481 44.9379 12.3313 44.9827 13.703C44.9827 15.4292 44.4444 17.1989 43.2342 18.4379C42.1584 19.5 40.5451 20.3853 38.1239 20.3853C37.6312 20.3853 37.1377 20.2968 36.6001 20.1641C36.6001 20.1641 36.6001 22.3326 36.6001 22.8191C36.6001 23.6601 36.9585 24.0138 37.8103 24.0581C37.9447 24.0581 38.0791 24.0581 38.2135 24.0581V24.9433H29.6965V24.1023C29.9205 24.1023 30.1445 24.0581 30.414 24.0581C30.9523 23.9696 31.3106 23.6601 31.3106 23.1286C31.3106 22.9959 31.3106 15.9149 31.3106 12.4633C31.3106 12.1537 31.221 11.9318 31.0419 11.7107C30.5939 11.3127 29.7869 10.4717 29.7869 10.4717L36.421 7.77256V9.67567L36.5105 9.7199C36.5105 9.7199 36.7793 9.23344 37.0936 8.92312C37.9903 8.12635 38.8869 7.90523 39.8732 7.90523C41.4417 7.81678 43.1006 8.70201 43.9525 10.0295L43.9517 10.0302ZM39.3797 14.3229C39.3797 11.8449 39.2453 9.80909 37.9903 9.80909C36.7353 9.80909 36.6009 11.8449 36.6009 14.3229C36.6009 16.8009 36.6009 18.8367 37.9903 18.8367C39.3797 18.8367 39.3797 16.8009 39.3797 14.3229ZM75.4193 9.72064C76.3159 10.8712 76.6743 12.1544 76.6743 13.6595C76.6743 15.6953 76.0912 17.4208 74.4778 18.7932C73.4468 19.6784 71.8783 20.3418 69.637 20.3418C68.5612 20.3418 67.4854 20.1649 66.4544 19.6335C65.9616 19.3681 65.5129 19.102 65.0202 18.7482C64.6618 19.0578 63.7652 19.8546 63.7652 19.8546H63.0029V6.84387C63.0029 6.5343 62.9133 6.31319 62.7342 6.09132C62.2862 5.69331 61.4792 4.85231 61.4792 4.85231L68.3372 2.06398V9.32188L68.4268 9.36611C68.4268 9.36611 69.3235 7.77331 71.6543 7.77331C73.1333 7.81753 74.5234 8.52586 75.4193 9.72064ZM71.116 14.3229C71.116 11.8449 70.9816 9.80909 69.7266 9.80909C68.4716 9.80909 68.3372 11.8449 68.3372 14.3229C68.3372 16.8009 68.3372 18.8367 69.7266 18.8367C71.116 18.7925 71.116 16.8009 71.116 14.3229Z" />
</svg>
