<svg width="48" height="44" viewBox="0 0 48 44" xmlns="http://www.w3.org/2000/svg">
<path d="M37.9371 20.2568C41.3703 20.2568 43.955 18.8377 45.8607 16.367L43.3137 14.4389C42.6845 15.2616 41.8714 15.9281 40.9384 16.3858C40.0054 16.8435 38.978 17.08 37.9371 17.0766C34.2111 17.0766 31.5112 14.0648 31.5112 10.3692C31.5112 6.67357 34.1671 3.49215 38.0434 3.49215C39.7664 3.49215 40.9843 3.89577 42.0466 4.54877V7.79833H45.2518V3.06025L44.6377 2.58076C42.8758 1.20535 40.1849 0.47522 37.9358 0.47522C32.4375 0.47522 27.9653 4.91256 27.9653 10.3679C27.9653 15.8182 32.4349 20.2568 37.9358 20.2568H37.9371ZM44.5872 39.7697L44.4732 35.2154V24.1015H37.7882V27.283H41.097V34.8233C41.097 38.0716 38.5966 40.3712 36.0741 40.3712C33.5517 40.3712 32.2354 38.6359 32.2354 35.3889V24.1002H25.9909V27.2817H28.8592V35.9403C28.8592 40.3468 31.3493 43.383 35.7904 43.383C38.3426 43.383 40.286 41.978 41.4455 39.8121H41.4973L41.9546 42.8406H47.0915V39.7735H44.5911V39.7671L44.5872 39.7697ZM27.2269 0.941841H21.656L16.8107 14.9016H16.7355L11.9161 0.941841H5.97988V4.12455H9.31851L15.0643 20.0357H18.1166V20.0318L24.1085 4.12585H27.2243V0.943135L27.2269 0.941841ZM0.766602 42.8817H4.06766V39.6077H0.767897V42.8817H0.766602ZM13.5148 27.7907H13.4785L13.2712 24.1015H7.37907V27.0015H10.5143V39.7709H7.37907V42.8393H21.941V39.8314H13.8335V32.1252C14.2001 29.3358 16.308 26.9539 19.1841 26.9539H19.2359L19.1776 29.805H22.3828V24.0488H19.8487C16.9467 24.0411 14.7935 25.599 13.5135 27.792L13.5148 27.7907Z"/>
</svg>
